<?xml version="1.0" encoding="UTF-8" standalone="no"?>
<!DOCTYPE svg PUBLIC "-//W3C//DTD SVG 1.1//EN" "http://www.w3.org/Graphics/SVG/1.1/DTD/svg11.dtd">
<svg xmlns="http://www.w3.org/2000/svg" version="1.1" viewBox="0.00 0.00 240.00 144.00">
<g stroke-width="2.00" fill="none" stroke-linecap="butt">
<path stroke="#8091b4" vector-effect="non-scaling-stroke" d="
  M 28.26 0.00
  L 95.54 40.57
  A 0.27 0.26 -74.6 0 0 95.94 40.34
  L 95.96 0.00"
/>
<path stroke="#e48797" vector-effect="non-scaling-stroke" d="
  M 105.55 0.00
  L 105.57 56.97
  Q 105.57 57.64 104.90 57.64
  L 0.00 57.57"
/>
<path stroke="#8091b4" vector-effect="non-scaling-stroke" d="
  M 0.00 47.97
  L 50.82 47.99
  Q 52.15 47.99 51.01 47.31
  L 0.00 16.77"
/>
<path stroke="#e48797" vector-effect="non-scaling-stroke" d="
  M 0.00 11.18
  L 60.58 47.51
  A 3.70 3.64 -29.2 0 0 62.52 48.04
  L 78.54 48.01
  Q 80.05 48.01 78.76 47.24
  L 0.66 0.39
  Q 0.47 0.28 0.26 0.32
  L 0.00 0.38"
/>
<path stroke="#e48797" vector-effect="non-scaling-stroke" d="
  M 134.42 0.00
  L 134.36 56.46
  Q 134.36 57.62 135.52 57.62
  L 240.00 57.57"
/>
<path stroke="#e48797" vector-effect="non-scaling-stroke" d="
  M 240.00 86.46
  L 134.82 86.43
  A 0.41 0.40 90.0 0 0 134.42 86.84
  L 134.42 144.00"
/>
<path stroke="#e48797" vector-effect="non-scaling-stroke" d="
  M 105.57 144.00
  L 105.63 86.90
  A 0.45 0.44 -90.0 0 0 105.19 86.45
  L 0.00 86.47"
/>
<path stroke="#8091b4" vector-effect="non-scaling-stroke" d="
  M 144.02 0.00
  L 144.03 40.41
  A 0.28 0.27 -16.0 0 0 144.45 40.64
  L 211.55 0.00"
/>
<path stroke="#e48797" vector-effect="non-scaling-stroke" d="
  M 221.63 0.00
  L 145.57 45.44
  Q 141.25 48.02 146.28 48.03
  L 158.97 48.06
  A 3.39 3.36 -60.3 0 0 160.77 47.56
  Q 198.88 24.61 236.92 1.88
  Q 237.95 1.26 239.10 0.88
  A 0.36 0.36 0.0 0 0 239.26 0.30
  L 238.99 0.00"
/>
<path stroke="#8091b4" vector-effect="non-scaling-stroke" d="
  M 240.00 16.78
  L 189.39 47.09
  Q 187.89 47.99 189.64 47.99
  L 240.00 47.97"
/>
<path stroke="#8091b4" vector-effect="non-scaling-stroke" d="
  M 240.00 96.04
  L 189.41 96.00
  Q 187.92 96.00 189.20 96.77
  L 240.00 127.23"
/>
<path stroke="#e48797" vector-effect="non-scaling-stroke" d="
  M 240.00 132.81
  L 179.81 96.69
  Q 178.62 95.97 177.23 95.98
  L 162.05 96.00
  Q 159.60 96.00 161.70 97.26
  L 240.00 144.04"
/>
<path stroke="#8091b4" vector-effect="non-scaling-stroke" d="
  M 211.80 144.00
  L 144.50 103.41
  A 0.29 0.29 0.0 0 0 144.06 103.66
  L 144.05 144.00"
/>
<path stroke="#8091b4" vector-effect="non-scaling-stroke" d="
  M 95.94 144.00
  L 96.00 103.98
  Q 96.00 103.15 95.29 103.58
  L 28.24 144.00"
/>
<path stroke="#e48797" vector-effect="non-scaling-stroke" d="
  M 18.57 144.00
  Q 56.96 121.05 95.42 97.88
  Q 96.38 97.29 95.97 96.30
  A 0.53 0.52 -10.6 0 0 95.48 95.97
  L 81.24 95.98
  A 4.82 4.79 29.2 0 0 78.74 96.68
  Q 37.14 122.01 1.95 142.53
  Q 1.42 142.84 0.82 143.13
  Q 0.21 143.43 0.80 143.77
  L 1.21 144.00"
/>
<path stroke="#8091b4" vector-effect="non-scaling-stroke" d="
  M 0.00 127.26
  L 50.74 96.90
  Q 52.27 95.98 50.49 95.98
  L 0.00 96.00"
/>
</g>
<path fill="#ffffff" d="
  M 0.00 0.00
  L 28.26 0.00
  L 95.54 40.57
  A 0.27 0.26 -74.6 0 0 95.94 40.34
  L 95.96 0.00
  L 105.55 0.00
  L 105.57 56.97
  Q 105.57 57.64 104.90 57.64
  L 0.00 57.57
  L 0.00 47.97
  L 50.82 47.99
  Q 52.15 47.99 51.01 47.31
  L 0.00 16.77
  L 0.00 11.18
  L 60.58 47.51
  A 3.70 3.64 -29.2 0 0 62.52 48.04
  L 78.54 48.01
  Q 80.05 48.01 78.76 47.24
  L 0.66 0.39
  Q 0.47 0.28 0.26 0.32
  L 0.00 0.38
  L 0.00 0.00
  Z"
/>
<path fill="#012269" d="
  M 28.26 0.00
  L 95.96 0.00
  L 95.94 40.34
  A 0.27 0.26 -74.6 0 1 95.54 40.57
  L 28.26 0.00
  Z"
/>
<path fill="#c80f2e" d="
  M 105.55 0.00
  L 134.42 0.00
  L 134.36 56.46
  Q 134.36 57.62 135.52 57.62
  L 240.00 57.57
  L 240.00 86.46
  L 134.82 86.43
  A 0.41 0.40 90.0 0 0 134.42 86.84
  L 134.42 144.00
  L 105.57 144.00
  L 105.63 86.90
  A 0.45 0.44 -90.0 0 0 105.19 86.45
  L 0.00 86.47
  L 0.00 57.57
  L 104.90 57.64
  Q 105.57 57.64 105.57 56.97
  L 105.55 0.00
  Z"
/>
<path fill="#ffffff" d="
  M 134.42 0.00
  L 144.02 0.00
  L 144.03 40.41
  A 0.28 0.27 -16.0 0 0 144.45 40.64
  L 211.55 0.00
  L 221.63 0.00
  L 145.57 45.44
  Q 141.25 48.02 146.28 48.03
  L 158.97 48.06
  A 3.39 3.36 -60.3 0 0 160.77 47.56
  Q 198.88 24.61 236.92 1.88
  Q 237.95 1.26 239.10 0.88
  A 0.36 0.36 0.0 0 0 239.26 0.30
  L 238.99 0.00
  L 240.00 0.00
  L 240.00 16.78
  L 189.39 47.09
  Q 187.89 47.99 189.64 47.99
  L 240.00 47.97
  L 240.00 57.57
  L 135.52 57.62
  Q 134.36 57.62 134.36 56.46
  L 134.42 0.00
  Z"
/>
<path fill="#012269" d="
  M 144.02 0.00
  L 211.55 0.00
  L 144.45 40.64
  A 0.28 0.27 -16.0 0 1 144.03 40.41
  L 144.02 0.00
  Z"
/>
<path fill="#c80f2e" d="
  M 221.63 0.00
  L 238.99 0.00
  L 239.26 0.30
  A 0.36 0.36 0.0 0 1 239.10 0.88
  Q 237.95 1.26 236.92 1.88
  Q 198.88 24.61 160.77 47.56
  A 3.39 3.36 -60.3 0 1 158.97 48.06
  L 146.28 48.03
  Q 141.25 48.02 145.57 45.44
  L 221.63 0.00
  Z"
/>
<path fill="#c80f2e" d="
  M 0.00 11.18
  L 0.00 0.38
  L 0.26 0.32
  Q 0.47 0.28 0.66 0.39
  L 78.76 47.24
  Q 80.05 48.01 78.54 48.01
  L 62.52 48.04
  A 3.70 3.64 -29.2 0 1 60.58 47.51
  L 0.00 11.18
  Z"
/>
<path fill="#012269" d="
  M 0.00 47.97
  L 0.00 16.77
  L 51.01 47.31
  Q 52.15 47.99 50.82 47.99
  L 0.00 47.97
  Z"
/>
<path fill="#012269" d="
  M 240.00 16.78
  L 240.00 47.97
  L 189.64 47.99
  Q 187.89 47.99 189.39 47.09
  L 240.00 16.78
  Z"
/>
<path fill="#ffffff" d="
  M 240.00 86.46
  L 240.00 96.04
  L 189.41 96.00
  Q 187.92 96.00 189.20 96.77
  L 240.00 127.23
  L 240.00 132.81
  L 179.81 96.69
  Q 178.62 95.97 177.23 95.98
  L 162.05 96.00
  Q 159.60 96.00 161.70 97.26
  L 240.00 144.04
  Q 240.00 144.02 240.00 144.00
  L 211.80 144.00
  L 144.50 103.41
  A 0.29 0.29 0.0 0 0 144.06 103.66
  L 144.05 144.00
  L 134.42 144.00
  L 134.42 86.84
  A 0.41 0.40 90.0 0 1 134.82 86.43
  L 240.00 86.46
  Z"
/>
<path fill="#ffffff" d="
  M 0.00 86.47
  L 105.19 86.45
  A 0.45 0.44 -90.0 0 1 105.63 86.90
  L 105.57 144.00
  L 95.94 144.00
  L 96.00 103.98
  Q 96.00 103.15 95.29 103.58
  L 28.24 144.00
  L 18.57 144.00
  Q 56.96 121.05 95.42 97.88
  Q 96.38 97.29 95.97 96.30
  A 0.53 0.52 -10.6 0 0 95.48 95.97
  L 81.24 95.98
  A 4.82 4.79 29.2 0 0 78.74 96.68
  Q 37.14 122.01 1.95 142.53
  Q 1.42 142.84 0.82 143.13
  Q 0.21 143.43 0.80 143.77
  L 1.21 144.00
  L 0.00 144.00
  L 0.00 127.26
  L 50.74 96.90
  Q 52.27 95.98 50.49 95.98
  L 0.00 96.00
  L 0.00 86.47
  Z"
/>
<path fill="#012269" d="
  M 0.00 96.00
  L 50.49 95.98
  Q 52.27 95.98 50.74 96.90
  L 0.00 127.26
  L 0.00 96.00
  Z"
/>
<path fill="#c80f2e" d="
  M 18.57 144.00
  L 1.21 144.00
  L 0.80 143.77
  Q 0.21 143.43 0.82 143.13
  Q 1.42 142.84 1.95 142.53
  Q 37.14 122.01 78.74 96.68
  A 4.82 4.79 29.2 0 1 81.24 95.98
  L 95.48 95.97
  A 0.53 0.52 -10.6 0 1 95.97 96.30
  Q 96.38 97.29 95.42 97.88
  Q 56.96 121.05 18.57 144.00
  Z"
/>
<path fill="#c80f2e" d="
  M 240.00 132.81
  L 240.00 144.04
  L 161.70 97.26
  Q 159.60 96.00 162.05 96.00
  L 177.23 95.98
  Q 178.62 95.97 179.81 96.69
  L 240.00 132.81
  Z"
/>
<path fill="#012269" d="
  M 240.00 96.04
  L 240.00 127.23
  L 189.20 96.77
  Q 187.92 96.00 189.41 96.00
  L 240.00 96.04
  Z"
/>
<path fill="#012269" d="
  M 95.94 144.00
  L 28.24 144.00
  L 95.29 103.58
  Q 96.00 103.15 96.00 103.98
  L 95.94 144.00
  Z"
/>
<path fill="#012269" d="
  M 211.80 144.00
  L 144.05 144.00
  L 144.06 103.66
  A 0.29 0.29 0.0 0 1 144.50 103.41
  L 211.80 144.00
  Z"
/>
</svg>
