<?xml version="1.0" encoding="UTF-8" standalone="no"?>
<!DOCTYPE svg PUBLIC "-//W3C//DTD SVG 1.1//EN" "http://www.w3.org/Graphics/SVG/1.1/DTD/svg11.dtd">
<svg xmlns="http://www.w3.org/2000/svg" version="1.1" viewBox="0.00 0.00 240.00 126.00">
<g stroke-width="2.00" fill="none" stroke-linecap="butt">
<path stroke="#5e1d51" vector-effect="non-scaling-stroke" d="
  M 96.24 0.00
  L 96.24 9.70"
/>
<path stroke="#8093b2" vector-effect="non-scaling-stroke" d="
  M 96.24 9.70
  L 96.28 19.39"
/>
<path stroke="#5e1d51" vector-effect="non-scaling-stroke" d="
  M 96.28 19.39
  Q 96.58 19.69 96.27 19.97
  A 0.58 0.57 68.6 0 0 96.09 20.39
  L 96.14 29.04"
/>
<path stroke="#8093b2" vector-effect="non-scaling-stroke" d="
  M 96.14 29.04
  L 96.15 38.76"
/>
<path stroke="#5e1d51" vector-effect="non-scaling-stroke" d="
  M 96.15 38.76
  L 96.18 48.47"
/>
<path stroke="#8093b2" vector-effect="non-scaling-stroke" d="
  M 96.18 48.47
  L 96.19 58.18"
/>
<path stroke="#5e1d51" vector-effect="non-scaling-stroke" d="
  M 96.19 58.18
  Q 95.59 63.08 96.40 67.87"
/>
<path stroke="#8093b2" vector-effect="non-scaling-stroke" d="
  M 96.40 67.87
  L 0.00 67.92"
/>
<path stroke="#8093b2" vector-effect="non-scaling-stroke" d="
  M 9.37 5.49
  A 0.35 0.35 0.0 0 1 9.03 5.24
  L 8.56 3.70
  A 0.35 0.35 0.0 0 0 7.89 3.70
  L 7.42 5.24
  A 0.35 0.35 0.0 0 1 7.08 5.49
  L 5.46 5.46
  A 0.35 0.35 0.0 0 0 5.25 6.09
  L 6.58 7.02
  A 0.35 0.35 0.0 0 1 6.71 7.42
  L 6.18 8.94
  A 0.35 0.35 0.0 0 0 6.72 9.34
  L 8.01 8.37
  A 0.35 0.35 0.0 0 1 8.43 8.37
  L 9.71 9.34
  A 0.35 0.35 0.0 0 0 10.26 8.95
  L 9.73 7.43
  A 0.35 0.35 0.0 0 1 9.86 7.02
  L 11.19 6.10
  A 0.35 0.35 0.0 0 0 10.98 5.47
  L 9.37 5.49"
/>
<path stroke="#8093b2" vector-effect="non-scaling-stroke" d="
  M 25.25 5.52
  A 0.34 0.34 0.0 0 1 24.91 5.27
  L 24.44 3.60
  A 0.34 0.34 0.0 0 0 23.78 3.60
  L 23.31 5.27
  A 0.34 0.34 0.0 0 1 22.97 5.52
  L 21.24 5.45
  A 0.34 0.34 0.0 0 0 21.04 6.07
  L 22.47 7.04
  A 0.34 0.34 0.0 0 1 22.60 7.44
  L 22.01 9.07
  A 0.34 0.34 0.0 0 0 22.54 9.45
  L 23.90 8.38
  A 0.34 0.34 0.0 0 1 24.32 8.38
  L 25.68 9.45
  A 0.34 0.34 0.0 0 0 26.21 9.07
  L 25.62 7.44
  A 0.34 0.34 0.0 0 1 25.75 7.04
  L 27.18 6.07
  A 0.34 0.34 0.0 0 0 26.98 5.45
  L 25.25 5.52"
/>
<path stroke="#8093b2" vector-effect="non-scaling-stroke" d="
  M 41.16 5.54
  A 0.34 0.34 0.0 0 1 40.82 5.29
  L 40.34 3.60
  A 0.34 0.34 0.0 0 0 39.69 3.60
  L 39.22 5.29
  A 0.34 0.34 0.0 0 1 38.88 5.54
  L 37.12 5.47
  A 0.34 0.34 0.0 0 0 36.92 6.09
  L 38.39 7.06
  A 0.34 0.34 0.0 0 1 38.52 7.46
  L 37.91 9.11
  A 0.34 0.34 0.0 0 0 38.44 9.49
  L 39.81 8.40
  A 0.34 0.34 0.0 0 1 40.23 8.40
  L 41.61 9.49
  A 0.34 0.34 0.0 0 0 42.14 9.10
  L 41.52 7.46
  A 0.34 0.34 0.0 0 1 41.65 7.06
  L 43.12 6.08
  A 0.34 0.34 0.0 0 0 42.91 5.46
  L 41.16 5.54"
/>
<path stroke="#8093b2" vector-effect="non-scaling-stroke" d="
  M 57.09 5.50
  A 0.35 0.35 0.0 0 1 56.74 5.25
  L 56.26 3.63
  A 0.35 0.35 0.0 0 0 55.59 3.63
  L 55.12 5.25
  A 0.35 0.35 0.0 0 1 54.77 5.50
  L 53.08 5.46
  A 0.35 0.35 0.0 0 0 52.87 6.10
  L 54.27 7.05
  A 0.35 0.35 0.0 0 1 54.40 7.45
  L 53.84 9.05
  A 0.35 0.35 0.0 0 0 54.38 9.44
  L 55.72 8.41
  A 0.35 0.35 0.0 0 1 56.15 8.40
  L 57.49 9.44
  A 0.35 0.35 0.0 0 0 58.03 9.04
  L 57.46 7.45
  A 0.35 0.35 0.0 0 1 57.59 7.04
  L 58.98 6.08
  A 0.35 0.35 0.0 0 0 58.78 5.45
  L 57.09 5.50"
/>
<path stroke="#8093b2" vector-effect="non-scaling-stroke" d="
  M 73.01 5.50
  A 0.35 0.35 0.0 0 1 72.67 5.25
  L 72.20 3.64
  A 0.35 0.35 0.0 0 0 71.53 3.64
  L 71.05 5.24
  A 0.35 0.35 0.0 0 1 70.70 5.49
  L 69.03 5.43
  A 0.35 0.35 0.0 0 0 68.82 6.07
  L 70.19 7.03
  A 0.35 0.35 0.0 0 1 70.32 7.43
  L 69.76 9.00
  A 0.35 0.35 0.0 0 0 70.30 9.40
  L 71.63 8.39
  A 0.35 0.35 0.0 0 1 72.05 8.39
  L 73.38 9.42
  A 0.35 0.35 0.0 0 0 73.92 9.03
  L 73.37 7.45
  A 0.35 0.35 0.0 0 1 73.51 7.04
  L 74.89 6.10
  A 0.35 0.35 0.0 0 0 74.68 5.46
  L 73.01 5.50"
/>
<path stroke="#8093b2" vector-effect="non-scaling-stroke" d="
  M 88.90 5.53
  A 0.34 0.34 0.0 0 1 88.56 5.28
  L 88.09 3.63
  A 0.34 0.34 0.0 0 0 87.43 3.62
  L 86.95 5.28
  A 0.34 0.34 0.0 0 1 86.61 5.52
  L 84.89 5.46
  A 0.34 0.34 0.0 0 0 84.69 6.08
  L 86.11 7.05
  A 0.34 0.34 0.0 0 1 86.24 7.44
  L 85.65 9.06
  A 0.34 0.34 0.0 0 0 86.17 9.45
  L 87.54 8.39
  A 0.34 0.34 0.0 0 1 87.95 8.39
  L 89.31 9.46
  A 0.34 0.34 0.0 0 0 89.84 9.07
  L 89.26 7.45
  A 0.34 0.34 0.0 0 1 89.39 7.06
  L 90.81 6.10
  A 0.34 0.34 0.0 0 0 90.62 5.48
  L 88.90 5.53"
/>
<path stroke="#8093b2" vector-effect="non-scaling-stroke" d="
  M 17.32 12.31
  A 0.35 0.35 0.0 0 1 16.97 12.06
  L 16.49 10.46
  A 0.35 0.35 0.0 0 0 15.82 10.47
  L 15.35 12.07
  A 0.35 0.35 0.0 0 1 15.01 12.32
  L 13.34 12.29
  A 0.35 0.35 0.0 0 0 13.14 12.92
  L 14.52 13.86
  A 0.35 0.35 0.0 0 1 14.65 14.27
  L 14.10 15.84
  A 0.35 0.35 0.0 0 0 14.65 16.23
  L 15.97 15.21
  A 0.35 0.35 0.0 0 1 16.39 15.21
  L 17.72 16.22
  A 0.35 0.35 0.0 0 0 18.26 15.82
  L 17.70 14.25
  A 0.35 0.35 0.0 0 1 17.83 13.85
  L 19.19 12.89
  A 0.35 0.35 0.0 0 0 18.98 12.26
  L 17.32 12.31"
/>
<path stroke="#8093b2" vector-effect="non-scaling-stroke" d="
  M 30.56 12.38
  L 29.27 12.38
  Q 28.41 12.38 29.12 12.86
  L 30.17 13.57
  A 0.84 0.83 26.2 0 1 30.49 14.50
  L 30.04 15.94
  Q 29.81 16.70 30.47 16.26
  Q 31.06 15.87 31.54 15.34
  A 0.70 0.70 0.0 0 1 32.50 15.27
  L 33.60 16.15
  Q 34.58 16.94 34.04 15.80
  Q 33.11 13.85 34.92 12.91
  Q 35.83 12.44 34.81 12.30
  Q 34.22 12.22 33.60 12.29
  Q 32.95 12.36 32.76 11.74
  L 32.39 10.53
  Q 32.08 9.50 31.77 10.53
  L 31.41 11.75
  A 0.89 0.89 0.0 0 1 30.56 12.38"
/>
<path stroke="#8093b2" vector-effect="non-scaling-stroke" d="
  M 46.56 12.38
  Q 45.89 12.49 45.19 12.29
  A 0.34 0.34 0.0 0 0 44.99 12.94
  Q 47.17 13.70 46.00 15.81
  Q 45.48 16.75 46.38 16.17
  Q 46.99 15.77 47.51 15.33
  Q 48.05 14.87 48.56 15.37
  Q 48.97 15.78 49.44 16.08
  Q 50.32 16.62 49.90 15.67
  Q 49.09 13.84 50.83 12.92
  Q 51.75 12.44 50.72 12.29
  Q 50.25 12.23 49.76 12.30
  Q 48.90 12.42 48.65 11.59
  L 48.30 10.49
  Q 47.96 9.42 47.66 10.50
  L 47.34 11.69
  A 0.96 0.95 -86.1 0 1 46.56 12.38"
/>
<path stroke="#8093b2" vector-effect="non-scaling-stroke" d="
  M 65.06 12.31
  A 0.35 0.35 0.0 0 1 64.72 12.06
  L 64.24 10.45
  A 0.35 0.35 0.0 0 0 63.57 10.45
  L 63.10 12.06
  A 0.35 0.35 0.0 0 1 62.75 12.31
  L 61.07 12.27
  A 0.35 0.35 0.0 0 0 60.86 12.91
  L 62.25 13.86
  A 0.35 0.35 0.0 0 1 62.39 14.26
  L 61.82 15.85
  A 0.35 0.35 0.0 0 0 62.37 16.24
  L 63.70 15.21
  A 0.35 0.35 0.0 0 1 64.13 15.21
  L 65.46 16.24
  A 0.35 0.35 0.0 0 0 66.00 15.84
  L 65.44 14.26
  A 0.35 0.35 0.0 0 1 65.57 13.85
  L 66.95 12.90
  A 0.35 0.35 0.0 0 0 66.74 12.26
  L 65.06 12.31"
/>
<path stroke="#8093b2" vector-effect="non-scaling-stroke" d="
  M 78.28 12.28
  Q 77.64 12.28 77.02 12.38
  Q 76.04 12.53 76.95 12.92
  Q 78.99 13.81 77.77 15.79
  Q 77.20 16.71 78.16 16.22
  Q 78.74 15.93 79.17 15.39
  A 0.85 0.84 -39.6 0 1 80.57 15.52
  Q 80.85 16.03 81.43 16.19
  Q 82.18 16.39 81.80 15.70
  Q 80.75 13.79 82.73 12.91
  Q 83.56 12.54 82.68 12.34
  Q 82.01 12.18 81.31 12.31
  A 0.66 0.66 0.0 0 1 80.53 11.75
  Q 80.44 11.05 80.05 10.44
  Q 79.66 9.84 79.48 10.53
  L 79.20 11.57
  Q 79.02 12.28 78.28 12.28"
/>
<path stroke="#8093b2" vector-effect="non-scaling-stroke" d="
  M 24.85 18.54
  L 24.38 17.25
  Q 24.07 16.37 23.82 17.27
  L 23.48 18.50
  A 0.86 0.85 -84.8 0 1 22.75 19.12
  L 21.27 19.29
  Q 20.24 19.41 21.20 19.82
  L 22.13 20.22
  Q 22.77 20.50 22.57 21.16
  L 22.13 22.59
  Q 21.83 23.59 22.63 22.93
  L 23.57 22.15
  Q 24.15 21.67 24.69 22.20
  Q 25.08 22.59 25.56 22.82
  Q 26.50 23.28 26.04 22.33
  Q 25.18 20.58 26.96 19.81
  Q 28.00 19.35 26.88 19.17
  Q 26.27 19.07 25.68 19.10
  Q 25.06 19.13 24.85 18.54"
/>
<path stroke="#8093b2" vector-effect="non-scaling-stroke" d="
  M 38.71 19.09
  L 37.24 19.30
  Q 36.04 19.46 37.19 19.84
  Q 39.11 20.45 38.14 22.34
  Q 37.65 23.29 38.61 22.81
  Q 39.04 22.58 39.42 22.25
  A 0.88 0.88 0.0 0 1 40.52 22.17
  L 41.49 22.84
  Q 42.44 23.50 41.96 22.45
  Q 41.05 20.51 43.05 19.69
  Q 43.88 19.35 42.99 19.21
  Q 42.26 19.09 41.53 19.09
  Q 40.89 19.09 40.70 18.48
  L 40.30 17.24
  Q 39.98 16.22 39.71 17.26
  L 39.39 18.48
  A 0.81 0.80 -86.8 0 1 38.71 19.09"
/>
<path stroke="#8093b2" vector-effect="non-scaling-stroke" d="
  M 54.68 19.08
  L 53.30 19.28
  Q 52.00 19.48 53.24 19.93
  Q 53.72 20.11 54.10 20.42
  Q 54.55 20.80 54.37 21.35
  L 54.00 22.46
  Q 53.70 23.37 54.49 22.83
  L 55.45 22.16
  Q 55.99 21.79 56.49 22.21
  Q 56.97 22.61 57.53 22.88
  Q 58.26 23.22 57.90 22.50
  Q 56.83 20.39 59.06 19.74
  Q 59.11 19.72 59.12 19.67
  Q 59.16 19.53 59.16 19.39
  Q 59.14 19.00 58.76 19.10
  Q 56.59 19.66 56.24 17.31
  Q 56.08 16.25 55.66 17.24
  Q 55.44 17.76 55.38 18.35
  Q 55.31 18.99 54.68 19.08"
/>
<path stroke="#8093b2" vector-effect="non-scaling-stroke" d="
  M 70.24 21.02
  Q 70.10 21.92 69.88 22.76
  Q 69.67 23.59 70.25 22.96
  Q 71.81 21.27 73.28 22.83
  Q 74.19 23.79 73.83 22.52
  L 73.46 21.22
  A 0.81 0.80 68.3 0 1 73.85 20.30
  L 74.77 19.79
  Q 75.95 19.14 74.60 19.16
  L 73.34 19.17
  Q 72.66 19.18 72.54 18.51
  Q 72.41 17.77 72.09 17.16
  Q 71.74 16.50 71.56 17.23
  L 71.26 18.45
  Q 71.12 19.01 70.55 19.08
  L 69.07 19.27
  Q 67.94 19.41 68.98 19.87
  L 69.82 20.25
  Q 70.33 20.47 70.24 21.02"
/>
<path stroke="#8093b2" vector-effect="non-scaling-stroke" d="
  M 88.93 19.10
  A 0.35 0.35 0.0 0 1 88.59 18.85
  L 88.10 17.25
  A 0.35 0.35 0.0 0 0 87.43 17.26
  L 86.96 18.85
  A 0.35 0.35 0.0 0 1 86.62 19.11
  L 84.96 19.07
  A 0.35 0.35 0.0 0 0 84.75 19.71
  L 86.12 20.65
  A 0.35 0.35 0.0 0 1 86.26 21.05
  L 85.71 22.63
  A 0.35 0.35 0.0 0 0 86.25 23.02
  L 87.57 22.00
  A 0.35 0.35 0.0 0 1 88.00 22.00
  L 89.33 23.01
  A 0.35 0.35 0.0 0 0 89.87 22.61
  L 89.31 21.04
  A 0.35 0.35 0.0 0 1 89.44 20.64
  L 90.81 19.69
  A 0.35 0.35 0.0 0 0 90.60 19.05
  L 88.93 19.10"
/>
<path stroke="#8093b2" vector-effect="non-scaling-stroke" d="
  M 8.96 18.59
  L 8.59 17.51
  Q 8.14 16.21 7.90 17.57
  Q 7.56 19.50 5.40 19.27
  Q 4.51 19.17 5.23 19.70
  Q 5.70 20.06 6.27 20.29
  A 0.74 0.73 -66.0 0 1 6.65 21.30
  Q 6.32 21.93 6.20 22.67
  Q 6.04 23.65 6.77 22.98
  L 7.64 22.19
  Q 8.10 21.77 8.62 22.12
  L 9.69 22.86
  Q 10.56 23.46 10.20 22.47
  L 9.85 21.51
  A 1.01 1.00 -22.5 0 1 10.38 20.24
  Q 10.82 20.04 11.20 19.71
  Q 11.90 19.12 10.98 19.12
  L 9.71 19.12
  Q 9.14 19.13 8.96 18.59"
/>
<path stroke="#8093b2" vector-effect="non-scaling-stroke" d="
  M 30.48 28.06
  L 30.22 28.97
  Q 29.81 30.38 30.91 29.41
  Q 32.00 28.45 33.04 29.27
  Q 34.31 30.29 33.87 28.72
  Q 33.49 27.36 34.87 26.62
  Q 35.95 26.04 34.73 25.99
  L 33.55 25.94
  Q 32.92 25.92 32.75 25.31
  L 32.41 24.04
  Q 32.19 23.24 31.83 23.99
  Q 31.55 24.57 31.46 25.23
  Q 31.37 25.89 30.71 25.93
  L 29.33 26.02
  Q 28.26 26.09 29.19 26.63
  L 30.13 27.18
  Q 30.65 27.48 30.48 28.06"
/>
<path stroke="#8093b2" vector-effect="non-scaling-stroke" d="
  M 62.31 27.95
  Q 62.25 28.55 61.96 29.11
  Q 61.49 30.01 62.41 29.61
  Q 62.89 29.40 63.30 29.07
  Q 63.77 28.70 64.32 28.94
  Q 64.78 29.14 65.12 29.49
  Q 65.78 30.16 65.73 29.22
  Q 65.69 28.59 65.54 28.00
  Q 65.43 27.54 65.81 27.27
  L 66.85 26.53
  Q 67.61 26.00 66.68 25.97
  L 65.38 25.94
  Q 64.79 25.92 64.61 25.36
  L 64.16 23.92
  Q 63.84 22.88 63.59 23.95
  L 63.29 25.26
  Q 63.18 25.73 62.70 25.86
  Q 61.96 26.05 61.10 25.98
  Q 60.43 25.93 60.86 26.44
  Q 61.20 26.85 61.72 27.03
  A 0.87 0.86 12.4 0 1 62.31 27.95"
/>
<path stroke="#8093b2" vector-effect="non-scaling-stroke" d="
  M 80.95 25.93
  A 0.34 0.34 0.0 0 1 80.61 25.68
  L 80.14 24.01
  A 0.34 0.34 0.0 0 0 79.48 24.01
  L 79.01 25.68
  A 0.34 0.34 0.0 0 1 78.67 25.93
  L 76.94 25.86
  A 0.34 0.34 0.0 0 0 76.74 26.48
  L 78.17 27.45
  A 0.34 0.34 0.0 0 1 78.30 27.85
  L 77.71 29.48
  A 0.34 0.34 0.0 0 0 78.24 29.86
  L 79.60 28.79
  A 0.34 0.34 0.0 0 1 80.02 28.79
  L 81.38 29.86
  A 0.34 0.34 0.0 0 0 81.91 29.48
  L 81.32 27.85
  A 0.34 0.34 0.0 0 1 81.45 27.45
  L 82.88 26.48
  A 0.34 0.34 0.0 0 0 82.68 25.86
  L 80.95 25.93"
/>
<path stroke="#8093b2" vector-effect="non-scaling-stroke" d="
  M 14.97 25.86
  Q 14.24 26.07 13.40 26.00
  Q 12.63 25.94 13.19 26.47
  Q 13.62 26.88 14.16 27.11
  Q 14.57 27.29 14.57 27.74
  Q 14.56 28.52 14.17 29.26
  Q 14.06 29.48 14.21 29.67
  Q 14.24 29.71 14.29 29.74
  Q 14.54 29.85 14.73 29.66
  Q 15.17 29.22 15.71 28.98
  Q 16.18 28.78 16.62 29.02
  L 17.65 29.57
  Q 18.43 30.00 18.13 29.16
  L 17.76 28.09
  A 0.68 0.67 69.6 0 1 18.14 27.25
  Q 18.85 26.94 19.30 26.39
  Q 19.79 25.79 19.03 25.96
  Q 16.76 26.46 16.52 24.23
  Q 16.41 23.20 15.87 24.08
  Q 15.60 24.51 15.61 25.02
  Q 15.61 25.69 14.97 25.86"
/>
<path stroke="#8093b2" vector-effect="non-scaling-stroke" d="
  M 47.23 25.66
  A 0.28 0.28 0.0 0 1 46.98 25.86
  L 45.07 26.00
  A 0.28 0.28 0.0 0 0 44.93 26.51
  L 46.38 27.50
  A 0.28 0.28 0.0 0 1 46.49 27.82
  L 45.99 29.38
  A 0.28 0.28 0.0 0 0 46.41 29.70
  L 47.85 28.82
  A 0.28 0.28 0.0 0 1 48.15 28.82
  L 49.49 29.65
  A 0.28 0.28 0.0 0 0 49.91 29.35
  L 49.59 27.74
  A 0.28 0.28 0.0 0 1 49.71 27.46
  L 51.09 26.48
  A 0.28 0.28 0.0 0 0 50.95 25.97
  L 49.09 25.87
  A 0.28 0.28 0.0 0 1 48.84 25.68
  L 48.25 23.90
  A 0.28 0.28 0.0 0 0 47.71 23.92
  L 47.23 25.66"
/>
<path stroke="#8093b2" vector-effect="non-scaling-stroke" d="
  M 9.37 32.72
  A 0.35 0.35 0.0 0 1 9.04 32.47
  L 8.56 30.98
  A 0.35 0.35 0.0 0 0 7.90 30.98
  L 7.42 32.47
  A 0.35 0.35 0.0 0 1 7.09 32.72
  L 5.52 32.71
  A 0.35 0.35 0.0 0 0 5.32 33.34
  L 6.59 34.26
  A 0.35 0.35 0.0 0 1 6.71 34.65
  L 6.22 36.14
  A 0.35 0.35 0.0 0 0 6.76 36.53
  L 8.02 35.60
  A 0.35 0.35 0.0 0 1 8.44 35.60
  L 9.70 36.53
  A 0.35 0.35 0.0 0 0 10.24 36.14
  L 9.75 34.65
  A 0.35 0.35 0.0 0 1 9.87 34.26
  L 11.14 33.34
  A 0.35 0.35 0.0 0 0 10.94 32.71
  L 9.37 32.72"
/>
<path stroke="#8093b2" vector-effect="non-scaling-stroke" d="
  M 22.55 32.73
  L 21.55 32.74
  Q 20.58 32.74 21.34 33.34
  L 22.19 34.02
  Q 22.63 34.37 22.49 34.91
  L 22.16 36.24
  Q 21.99 36.90 22.59 36.58
  Q 23.09 36.31 23.47 35.84
  Q 23.85 35.38 24.35 35.70
  Q 24.98 36.12 25.67 36.45
  Q 26.50 36.85 26.07 36.04
  Q 25.17 34.32 26.96 33.36
  Q 27.94 32.82 26.83 32.75
  Q 26.25 32.72 25.70 32.76
  Q 25.09 32.81 24.88 32.22
  L 24.44 30.93
  Q 24.24 30.35 23.92 30.88
  Q 23.60 31.42 23.44 32.03
  Q 23.27 32.73 22.55 32.73"
/>
<path stroke="#8093b2" vector-effect="non-scaling-stroke" d="
  M 41.76 35.41
  A 1.12 1.12 0.0 0 1 42.24 33.87
  Q 42.64 33.67 42.94 33.33
  Q 43.61 32.57 42.61 32.75
  Q 40.63 33.09 40.41 31.06
  Q 40.31 30.18 39.84 30.92
  Q 39.49 31.47 39.30 32.13
  Q 39.14 32.72 38.52 32.73
  L 37.51 32.75
  Q 36.33 32.77 37.35 33.36
  Q 38.95 34.28 38.15 36.01
  Q 37.66 37.08 38.67 36.48
  Q 39.03 36.26 39.32 35.92
  Q 39.83 35.33 40.47 35.78
  L 41.40 36.43
  Q 42.11 36.91 41.99 36.07
  Q 41.94 35.72 41.76 35.41"
/>
<path stroke="#8093b2" vector-effect="non-scaling-stroke" d="
  M 57.51 34.64
  A 0.31 0.31 0.0 0 1 57.62 34.31
  L 59.00 33.26
  A 0.31 0.31 0.0 0 0 58.81 32.70
  L 57.08 32.71
  A 0.31 0.31 0.0 0 1 56.78 32.49
  L 56.27 30.82
  A 0.31 0.31 0.0 0 0 55.68 30.80
  L 55.08 32.48
  A 0.31 0.31 0.0 0 1 54.79 32.69
  L 53.20 32.70
  A 0.31 0.31 0.0 0 0 53.02 33.26
  L 54.28 34.17
  A 0.31 0.31 0.0 0 1 54.40 34.51
  L 53.91 36.29
  A 0.31 0.31 0.0 0 0 54.40 36.62
  L 55.73 35.58
  A 0.31 0.31 0.0 0 1 56.10 35.57
  L 57.49 36.56
  A 0.31 0.31 0.0 0 0 57.96 36.23
  L 57.51 34.64"
/>
<path stroke="#8093b2" vector-effect="non-scaling-stroke" d="
  M 73.04 32.71
  A 0.35 0.35 0.0 0 1 72.71 32.46
  L 72.22 30.96
  A 0.35 0.35 0.0 0 0 71.56 30.96
  L 71.06 32.46
  A 0.35 0.35 0.0 0 1 70.73 32.70
  L 69.16 32.69
  A 0.35 0.35 0.0 0 0 68.95 33.33
  L 70.22 34.26
  A 0.35 0.35 0.0 0 1 70.34 34.65
  L 69.85 36.15
  A 0.35 0.35 0.0 0 0 70.39 36.54
  L 71.67 35.62
  A 0.35 0.35 0.0 0 1 72.08 35.62
  L 73.35 36.55
  A 0.35 0.35 0.0 0 0 73.89 36.16
  L 73.41 34.66
  A 0.35 0.35 0.0 0 1 73.54 34.27
  L 74.82 33.35
  A 0.35 0.35 0.0 0 0 74.61 32.71
  L 73.04 32.71"
/>
<path stroke="#8093b2" vector-effect="non-scaling-stroke" d="
  M 88.94 32.72
  A 0.35 0.35 0.0 0 1 88.59 32.47
  L 88.13 30.87
  A 0.35 0.35 0.0 0 0 87.46 30.87
  L 86.98 32.46
  A 0.35 0.35 0.0 0 1 86.64 32.71
  L 84.97 32.66
  A 0.35 0.35 0.0 0 0 84.76 33.30
  L 86.13 34.24
  A 0.35 0.35 0.0 0 1 86.26 34.65
  L 85.69 36.21
  A 0.35 0.35 0.0 0 0 86.23 36.61
  L 87.56 35.60
  A 0.35 0.35 0.0 0 1 87.98 35.61
  L 89.30 36.63
  A 0.35 0.35 0.0 0 0 89.84 36.24
  L 89.29 34.67
  A 0.35 0.35 0.0 0 1 89.43 34.26
  L 90.81 33.33
  A 0.35 0.35 0.0 0 0 90.60 32.69
  L 88.94 32.72"
/>
<path stroke="#8093b2" vector-effect="non-scaling-stroke" d="
  M 14.52 41.72
  L 14.18 42.96
  Q 14.03 43.53 14.61 43.41
  Q 14.82 43.37 14.93 43.20
  Q 15.86 41.74 17.13 42.90
  Q 18.58 44.23 17.94 42.37
  Q 17.48 41.02 18.93 40.15
  Q 20.01 39.50 18.75 39.51
  L 17.74 39.52
  Q 17.06 39.53 16.85 38.88
  L 16.50 37.73
  Q 16.23 36.85 15.91 37.72
  L 15.42 39.03
  Q 15.24 39.52 14.71 39.53
  L 13.30 39.55
  Q 12.49 39.56 13.15 40.03
  L 14.18 40.77
  Q 14.67 41.13 14.52 41.72"
/>
<path stroke="#8093b2" vector-effect="non-scaling-stroke" d="
  M 30.67 39.50
  Q 29.97 39.48 29.26 39.59
  Q 28.39 39.72 29.18 40.10
  Q 31.02 40.99 30.17 42.80
  Q 29.69 43.83 30.65 43.24
  Q 31.12 42.95 31.52 42.61
  Q 32.06 42.17 32.60 42.60
  L 33.51 43.32
  Q 34.29 43.94 34.05 42.97
  L 33.74 41.70
  A 0.80 0.79 66.2 0 1 34.07 40.84
  Q 34.55 40.52 34.95 40.11
  Q 35.67 39.35 34.64 39.52
  Q 32.65 39.85 32.42 37.83
  Q 32.31 36.86 31.85 37.72
  Q 31.54 38.31 31.37 38.97
  Q 31.23 39.52 30.67 39.50"
/>
<path stroke="#8093b2" vector-effect="non-scaling-stroke" d="
  M 48.63 38.82
  Q 48.59 38.27 48.35 37.80
  Q 47.91 36.93 47.63 37.86
  L 47.30 38.95
  A 0.80 0.79 -82.2 0 1 46.57 39.51
  L 45.25 39.56
  Q 44.17 39.59 45.13 40.10
  Q 46.95 41.06 46.04 42.83
  Q 45.62 43.66 46.47 43.28
  Q 47.04 43.03 47.53 42.60
  Q 48.10 42.10 48.60 42.67
  Q 48.97 43.09 49.48 43.35
  Q 50.19 43.70 49.98 42.93
  L 49.65 41.65
  A 0.70 0.69 -27.8 0 1 49.88 40.93
  L 50.97 40.03
  Q 51.58 39.53 50.79 39.51
  L 49.33 39.48
  Q 48.68 39.46 48.63 38.82"
/>
<path stroke="#8093b2" vector-effect="non-scaling-stroke" d="
  M 64.54 38.78
  Q 64.50 38.23 64.23 37.75
  Q 63.69 36.81 63.57 37.88
  Q 63.36 39.76 61.31 39.60
  Q 60.04 39.49 61.14 40.14
  Q 62.81 41.12 61.98 42.78
  Q 61.46 43.80 62.47 43.26
  Q 62.99 42.99 63.41 42.58
  A 0.76 0.75 -45.3 0 1 64.45 42.57
  Q 64.82 42.92 65.18 43.28
  Q 65.35 43.45 65.59 43.43
  Q 65.76 43.41 65.85 43.20
  Q 65.94 42.97 65.83 42.76
  Q 65.02 41.14 66.67 40.14
  Q 67.74 39.50 66.50 39.50
  L 65.30 39.49
  Q 64.59 39.49 64.54 38.78"
/>
<path stroke="#8093b2" vector-effect="non-scaling-stroke" d="
  M 80.97 39.50
  A 0.35 0.35 0.0 0 1 80.64 39.25
  L 80.15 37.72
  A 0.35 0.35 0.0 0 0 79.49 37.72
  L 78.99 39.24
  A 0.35 0.35 0.0 0 1 78.66 39.49
  L 77.06 39.47
  A 0.35 0.35 0.0 0 0 76.85 40.11
  L 78.15 41.05
  A 0.35 0.35 0.0 0 1 78.27 41.44
  L 77.76 42.96
  A 0.35 0.35 0.0 0 0 78.30 43.35
  L 79.60 42.41
  A 0.35 0.35 0.0 0 1 80.01 42.41
  L 81.30 43.36
  A 0.35 0.35 0.0 0 0 81.84 42.97
  L 81.34 41.45
  A 0.35 0.35 0.0 0 1 81.47 41.06
  L 82.78 40.13
  A 0.35 0.35 0.0 0 0 82.57 39.49
  L 80.97 39.50"
/>
<path stroke="#8093b2" vector-effect="non-scaling-stroke" d="
  M 38.58 46.33
  Q 37.95 46.48 37.31 46.43
  Q 36.21 46.35 37.19 46.86
  Q 39.03 47.83 38.13 49.63
  Q 37.98 49.95 38.24 50.18
  Q 38.28 50.22 38.33 50.22
  Q 38.71 50.24 38.94 49.94
  Q 39.27 49.50 39.75 49.24
  Q 40.28 48.94 40.64 49.44
  Q 40.93 49.87 41.40 50.08
  Q 42.19 50.44 41.89 49.63
  Q 41.25 47.89 42.88 46.82
  Q 43.80 46.22 42.71 46.36
  Q 40.64 46.62 40.31 44.55
  Q 40.14 43.50 39.79 44.50
  L 39.41 45.60
  Q 39.20 46.19 38.58 46.33"
/>
<path stroke="#8093b2" vector-effect="non-scaling-stroke" d="
  M 56.29 49.26
  Q 56.77 49.53 57.13 49.99
  Q 57.67 50.67 57.78 49.81
  Q 57.86 49.19 57.61 48.59
  A 0.80 0.79 -30.1 0 1 57.86 47.67
  L 58.90 46.83
  Q 59.60 46.27 58.71 46.28
  L 57.48 46.28
  Q 56.77 46.29 56.63 45.59
  Q 56.49 44.94 56.14 44.38
  Q 55.74 43.74 55.67 44.49
  Q 55.47 46.58 53.48 46.44
  Q 52.22 46.36 53.28 47.05
  L 54.00 47.52
  A 0.84 0.82 -67.4 0 1 54.35 48.39
  L 54.03 49.75
  Q 53.82 50.67 54.56 50.08
  L 55.50 49.32
  A 0.71 0.70 40.2 0 1 56.29 49.26"
/>
<path stroke="#8093b2" vector-effect="non-scaling-stroke" d="
  M 88.91 46.31
  A 0.35 0.35 0.0 0 1 88.57 46.06
  L 88.09 44.45
  A 0.35 0.35 0.0 0 0 87.42 44.45
  L 86.94 46.05
  A 0.35 0.35 0.0 0 1 86.59 46.30
  L 84.92 46.26
  A 0.35 0.35 0.0 0 0 84.71 46.90
  L 86.09 47.86
  A 0.35 0.35 0.0 0 1 86.22 48.26
  L 85.66 49.84
  A 0.35 0.35 0.0 0 0 86.20 50.23
  L 87.54 49.22
  A 0.35 0.35 0.0 0 1 87.96 49.22
  L 89.29 50.24
  A 0.35 0.35 0.0 0 0 89.83 49.84
  L 89.28 48.26
  A 0.35 0.35 0.0 0 1 89.41 47.86
  L 90.79 46.91
  A 0.35 0.35 0.0 0 0 90.58 46.27
  L 88.91 46.31"
/>
<path stroke="#8093b2" vector-effect="non-scaling-stroke" d="
  M 8.83 45.55
  Q 8.82 44.94 8.45 44.48
  Q 8.00 43.91 7.91 44.63
  Q 7.63 46.72 5.61 46.40
  Q 4.46 46.21 5.35 46.96
  Q 5.63 47.19 5.96 47.33
  A 1.13 1.12 29.5 0 1 6.44 49.05
  Q 6.11 49.50 6.19 50.02
  Q 6.30 50.77 6.78 50.18
  Q 8.27 48.35 9.73 50.12
  Q 10.26 50.76 10.17 49.93
  Q 10.09 49.26 9.87 48.63
  A 0.93 0.91 61.1 0 1 10.15 47.62
  L 11.13 46.80
  Q 11.77 46.27 10.94 46.27
  L 9.54 46.26
  Q 8.84 46.26 8.83 45.55"
/>
<path stroke="#8093b2" vector-effect="non-scaling-stroke" d="
  M 24.77 45.54
  L 24.47 44.67
  Q 24.15 43.74 23.82 44.67
  L 23.43 45.79
  Q 23.23 46.35 22.63 46.37
  Q 21.97 46.38 21.34 46.50
  Q 20.58 46.65 21.30 46.95
  Q 23.18 47.76 22.17 49.68
  Q 22.03 49.94 22.20 50.18
  Q 22.23 50.22 22.27 50.24
  Q 22.60 50.39 22.83 50.11
  Q 24.22 48.37 25.51 50.05
  Q 25.91 50.58 25.98 49.92
  Q 26.05 49.27 25.83 48.60
  Q 25.64 48.02 26.10 47.62
  L 26.95 46.90
  Q 27.70 46.26 26.72 46.26
  L 25.80 46.27
  Q 25.02 46.27 24.77 45.54"
/>
<path stroke="#8093b2" vector-effect="non-scaling-stroke" d="
  M 70.44 46.35
  L 69.00 46.36
  Q 68.83 46.36 68.78 46.40
  Q 68.64 46.51 68.71 46.66
  Q 68.84 46.94 69.12 47.05
  Q 70.83 47.74 69.99 49.58
  Q 69.36 50.96 70.51 49.97
  Q 71.48 49.13 72.42 49.17
  A 0.46 0.45 -89.4 0 1 72.86 49.63
  Q 72.85 50.02 73.17 50.12
  Q 74.04 50.39 73.71 49.54
  Q 73.02 47.69 74.86 46.88
  Q 75.43 46.63 74.86 46.39
  Q 74.26 46.14 73.58 46.31
  A 0.84 0.84 0.0 0 1 72.58 45.75
  L 72.18 44.50
  A 0.31 0.31 0.0 0 0 71.59 44.50
  L 71.16 45.82
  A 0.76 0.75 -81.0 0 1 70.44 46.35"
/>
<path stroke="#8093b2" vector-effect="non-scaling-stroke" d="
  M 30.65 53.14
  Q 29.95 53.16 29.25 53.30
  Q 28.21 53.50 29.21 53.83
  Q 31.08 54.46 30.20 56.29
  Q 29.66 57.41 30.75 56.81
  Q 31.12 56.60 31.42 56.27
  A 0.87 0.86 -49.8 0 1 32.59 56.17
  L 33.45 56.85
  Q 34.30 57.52 34.02 56.47
  L 33.70 55.25
  Q 33.54 54.64 34.09 54.34
  L 35.05 53.81
  Q 36.00 53.29 34.92 53.17
  Q 34.24 53.10 33.54 53.10
  Q 32.92 53.10 32.74 52.50
  L 32.38 51.26
  Q 32.08 50.23 31.79 51.27
  L 31.43 52.54
  A 0.84 0.83 7.1 0 1 30.65 53.14"
/>
<path stroke="#8093b2" vector-effect="non-scaling-stroke" d="
  M 62.56 53.11
  L 61.24 53.28
  Q 60.17 53.43 61.15 53.89
  Q 61.82 54.21 62.30 54.74
  A 0.40 0.39 36.1 0 1 62.37 55.16
  Q 62.06 55.83 61.93 56.53
  Q 61.72 57.65 62.52 56.83
  Q 64.01 55.28 65.34 56.92
  Q 65.81 57.49 65.86 56.75
  Q 65.90 56.20 65.61 55.71
  Q 65.32 55.20 65.63 54.71
  Q 66.07 54.04 66.89 53.80
  Q 67.08 53.74 67.14 53.56
  Q 67.28 53.14 66.58 53.15
  A 0.35 0.31 -48.6 0 0 66.50 53.16
  Q 65.70 53.31 64.97 53.02
  A 0.74 0.72 7.5 0 1 64.53 52.46
  Q 64.45 51.81 64.16 51.22
  Q 63.79 50.44 63.59 51.28
  L 63.30 52.44
  Q 63.16 53.03 62.56 53.11"
/>
<path stroke="#8093b2" vector-effect="non-scaling-stroke" d="
  M 80.45 52.41
  Q 80.33 51.75 80.01 51.16
  Q 79.71 50.61 79.54 51.22
  L 79.14 52.66
  Q 79.04 53.04 78.64 53.09
  L 76.99 53.26
  Q 76.10 53.36 76.86 53.84
  Q 77.26 54.09 77.71 54.24
  Q 78.51 54.50 78.25 55.30
  L 77.77 56.76
  Q 77.54 57.45 78.16 57.06
  Q 78.75 56.70 79.24 56.19
  A 0.83 0.83 0.0 0 1 80.42 56.17
  L 81.24 56.95
  Q 81.78 57.48 81.75 56.72
  Q 81.72 56.02 81.46 55.33
  A 0.85 0.84 65.3 0 1 81.83 54.30
  L 82.76 53.77
  Q 83.66 53.26 82.63 53.16
  Q 82.01 53.10 81.39 53.14
  Q 80.59 53.19 80.45 52.41"
/>
<path stroke="#8093b2" vector-effect="non-scaling-stroke" d="
  M 16.89 52.53
  L 16.48 51.43
  Q 16.13 50.51 15.84 51.45
  L 15.52 52.51
  Q 15.33 53.12 14.70 53.15
  Q 14.01 53.18 13.37 53.29
  Q 12.34 53.48 13.32 53.84
  Q 13.90 54.05 14.35 54.43
  A 0.83 0.83 0.0 0 1 14.55 55.43
  Q 14.26 56.00 14.20 56.60
  Q 14.10 57.64 14.79 56.85
  Q 16.19 55.22 17.64 56.93
  Q 18.15 57.54 18.10 56.75
  Q 18.04 55.99 17.83 55.33
  Q 17.63 54.73 18.16 54.39
  L 19.21 53.72
  Q 20.13 53.12 19.03 53.12
  L 17.75 53.12
  Q 17.11 53.13 16.89 52.53"
/>
<path stroke="#8093b2" vector-effect="non-scaling-stroke" d="
  M 46.74 53.12
  L 45.07 53.31
  Q 44.79 53.34 44.80 53.62
  Q 44.81 53.79 44.99 53.84
  Q 47.30 54.49 45.93 56.53
  A 0.32 0.32 0.0 0 0 46.37 56.97
  L 47.59 56.14
  Q 48.24 55.70 48.71 56.32
  Q 49.02 56.73 49.49 56.89
  Q 50.32 57.17 49.92 56.40
  Q 48.90 54.43 51.07 53.75
  Q 51.14 53.73 51.17 53.66
  Q 51.23 53.52 51.21 53.38
  Q 51.16 52.98 50.77 53.08
  Q 48.55 53.66 48.32 51.35
  Q 48.25 50.67 47.82 51.20
  Q 47.41 51.72 47.37 52.44
  A 0.72 0.71 88.1 0 1 46.74 53.12"
/>
<path stroke="#8093b2" vector-effect="non-scaling-stroke" d="
  M 6.90 59.95
  L 5.45 59.99
  Q 4.39 60.02 5.29 60.57
  L 6.22 61.14
  Q 6.82 61.51 6.60 62.18
  L 6.23 63.29
  Q 5.89 64.29 6.75 63.68
  L 7.46 63.17
  A 1.23 1.23 0.0 0 1 8.76 63.08
  L 9.66 63.55
  Q 10.49 63.99 10.16 63.11
  L 9.84 62.23
  Q 9.63 61.66 10.14 61.33
  Q 10.77 60.94 11.32 60.40
  Q 11.99 59.74 11.07 59.96
  Q 8.83 60.50 8.60 58.26
  Q 8.51 57.39 7.98 58.08
  Q 7.61 58.55 7.62 59.21
  A 0.74 0.74 0.0 0 1 6.90 59.95"
/>
<path stroke="#8093b2" vector-effect="non-scaling-stroke" d="
  M 22.88 59.93
  L 21.47 60.02
  Q 20.01 60.10 21.35 60.67
  Q 22.93 61.33 22.33 62.86
  Q 21.73 64.40 23.06 63.42
  L 23.54 63.06
  A 0.90 0.88 40.8 0 1 24.49 63.00
  L 25.66 63.62
  Q 26.45 64.04 26.08 63.22
  Q 25.81 62.63 25.77 62.00
  A 0.90 0.89 76.5 0 1 26.30 61.12
  Q 26.87 60.88 27.28 60.42
  Q 27.83 59.80 27.02 59.97
  Q 24.76 60.45 24.50 58.27
  Q 24.38 57.23 23.85 58.13
  Q 23.54 58.67 23.51 59.29
  Q 23.49 59.89 22.88 59.93"
/>
<path stroke="#8093b2" vector-effect="non-scaling-stroke" d="
  M 40.74 59.38
  L 40.35 58.07
  Q 40.07 57.12 39.77 58.07
  L 39.36 59.37
  Q 39.15 60.04 38.46 59.96
  Q 37.72 59.87 37.06 60.12
  Q 36.37 60.38 37.07 60.61
  Q 39.19 61.31 38.04 63.22
  Q 37.92 63.43 38.09 63.61
  Q 38.14 63.65 38.19 63.66
  Q 38.63 63.73 38.95 63.42
  Q 40.09 62.34 41.35 63.55
  Q 41.92 64.10 41.92 63.31
  Q 41.91 62.75 41.73 62.23
  Q 41.52 61.63 42.04 61.26
  L 42.92 60.64
  Q 43.75 60.05 42.74 60.00
  L 41.44 59.94
  Q 40.89 59.91 40.74 59.38"
/>
<path stroke="#8093b2" vector-effect="non-scaling-stroke" d="
  M 54.66 59.89
  Q 53.92 59.93 53.16 60.05
  Q 52.07 60.23 53.10 60.63
  Q 55.07 61.40 54.00 63.13
  Q 53.55 63.86 54.37 63.61
  Q 55.08 63.40 55.78 62.88
  A 0.45 0.45 0.0 0 1 56.37 62.92
  Q 56.84 63.40 57.41 63.62
  Q 58.16 63.91 57.84 63.17
  Q 57.00 61.29 59.04 60.49
  Q 59.74 60.21 59.01 60.05
  Q 58.26 59.90 57.42 59.92
  Q 56.80 59.94 56.63 59.34
  L 56.31 58.25
  Q 55.93 56.93 55.59 58.25
  L 55.29 59.38
  A 0.70 0.69 5.8 0 1 54.66 59.89"
/>
<path stroke="#8093b2" vector-effect="non-scaling-stroke" d="
  M 73.01 59.92
  A 0.35 0.35 0.0 0 1 72.67 59.67
  L 72.20 58.10
  A 0.35 0.35 0.0 0 0 71.53 58.09
  L 71.04 59.66
  A 0.35 0.35 0.0 0 1 70.70 59.91
  L 69.06 59.87
  A 0.35 0.35 0.0 0 0 68.85 60.51
  L 70.20 61.45
  A 0.35 0.35 0.0 0 1 70.32 61.85
  L 69.78 63.40
  A 0.35 0.35 0.0 0 0 70.32 63.79
  L 71.63 62.81
  A 0.35 0.35 0.0 0 1 72.06 62.81
  L 73.36 63.81
  A 0.35 0.35 0.0 0 0 73.90 63.41
  L 73.37 61.86
  A 0.35 0.35 0.0 0 1 73.50 61.46
  L 74.85 60.53
  A 0.35 0.35 0.0 0 0 74.65 59.89
  L 73.01 59.92"
/>
<path stroke="#8093b2" vector-effect="non-scaling-stroke" d="
  M 88.93 59.94
  A 0.35 0.35 0.0 0 1 88.58 59.68
  L 88.12 58.09
  A 0.35 0.35 0.0 0 0 87.45 58.09
  L 86.97 59.67
  A 0.35 0.35 0.0 0 1 86.63 59.92
  L 84.97 59.87
  A 0.35 0.35 0.0 0 0 84.76 60.51
  L 86.12 61.45
  A 0.35 0.35 0.0 0 1 86.25 61.86
  L 85.69 63.42
  A 0.35 0.35 0.0 0 0 86.23 63.82
  L 87.55 62.81
  A 0.35 0.35 0.0 0 1 87.97 62.82
  L 89.28 63.83
  A 0.35 0.35 0.0 0 0 89.83 63.44
  L 89.28 61.88
  A 0.35 0.35 0.0 0 1 89.42 61.47
  L 90.79 60.54
  A 0.35 0.35 0.0 0 0 90.59 59.90
  L 88.93 59.94"
/>
<path stroke="#dd899f" vector-effect="non-scaling-stroke" d="
  M 240.00 9.69
  L 96.24 9.70"
/>
<path stroke="#dd899f" vector-effect="non-scaling-stroke" d="
  M 240.00 19.35
  L 96.28 19.39"
/>
<path stroke="#dd899f" vector-effect="non-scaling-stroke" d="
  M 240.00 29.03
  L 96.14 29.04"
/>
<path stroke="#dd899f" vector-effect="non-scaling-stroke" d="
  M 240.00 38.77
  L 96.15 38.76"
/>
<path stroke="#dd899f" vector-effect="non-scaling-stroke" d="
  M 240.00 48.48
  L 96.18 48.47"
/>
<path stroke="#dd899f" vector-effect="non-scaling-stroke" d="
  M 240.00 58.18
  L 96.19 58.18"
/>
<path stroke="#dd899f" vector-effect="non-scaling-stroke" d="
  M 240.00 67.81
  L 96.40 67.87"
/>
<path stroke="#dd899f" vector-effect="non-scaling-stroke" d="
  M 240.00 77.53
  L 0.00 77.52"
/>
<path stroke="#dd899f" vector-effect="non-scaling-stroke" d="
  M 240.00 87.22
  L 0.00 87.24"
/>
<path stroke="#dd899f" vector-effect="non-scaling-stroke" d="
  M 240.00 96.95
  L 0.00 96.95"
/>
<path stroke="#dd899f" vector-effect="non-scaling-stroke" d="
  M 240.00 106.60
  L 0.00 106.61"
/>
<path stroke="#dd899f" vector-effect="non-scaling-stroke" d="
  M 240.00 116.29
  L 0.00 116.29"
/>
</g>
<path fill="#002664" d="
  M 0.00 0.00
  L 96.24 0.00
  L 96.24 9.70
  L 96.28 19.39
  Q 96.58 19.69 96.27 19.97
  A 0.58 0.57 68.6 0 0 96.09 20.39
  L 96.14 29.04
  L 96.15 38.76
  L 96.18 48.47
  L 96.19 58.18
  Q 95.59 63.08 96.40 67.87
  L 0.00 67.92
  L 0.00 0.00
  Z
  M 9.37 5.49
  A 0.35 0.35 0.0 0 1 9.03 5.24
  L 8.56 3.70
  A 0.35 0.35 0.0 0 0 7.89 3.70
  L 7.42 5.24
  A 0.35 0.35 0.0 0 1 7.08 5.49
  L 5.46 5.46
  A 0.35 0.35 0.0 0 0 5.25 6.09
  L 6.58 7.02
  A 0.35 0.35 0.0 0 1 6.71 7.42
  L 6.18 8.94
  A 0.35 0.35 0.0 0 0 6.72 9.34
  L 8.01 8.37
  A 0.35 0.35 0.0 0 1 8.43 8.37
  L 9.71 9.34
  A 0.35 0.35 0.0 0 0 10.26 8.95
  L 9.73 7.43
  A 0.35 0.35 0.0 0 1 9.86 7.02
  L 11.19 6.10
  A 0.35 0.35 0.0 0 0 10.98 5.47
  L 9.37 5.49
  Z
  M 25.25 5.52
  A 0.34 0.34 0.0 0 1 24.91 5.27
  L 24.44 3.60
  A 0.34 0.34 0.0 0 0 23.78 3.60
  L 23.31 5.27
  A 0.34 0.34 0.0 0 1 22.97 5.52
  L 21.24 5.45
  A 0.34 0.34 0.0 0 0 21.04 6.07
  L 22.47 7.04
  A 0.34 0.34 0.0 0 1 22.60 7.44
  L 22.01 9.07
  A 0.34 0.34 0.0 0 0 22.54 9.45
  L 23.90 8.38
  A 0.34 0.34 0.0 0 1 24.32 8.38
  L 25.68 9.45
  A 0.34 0.34 0.0 0 0 26.21 9.07
  L 25.62 7.44
  A 0.34 0.34 0.0 0 1 25.75 7.04
  L 27.18 6.07
  A 0.34 0.34 0.0 0 0 26.98 5.45
  L 25.25 5.52
  Z
  M 41.16 5.54
  A 0.34 0.34 0.0 0 1 40.82 5.29
  L 40.34 3.60
  A 0.34 0.34 0.0 0 0 39.69 3.60
  L 39.22 5.29
  A 0.34 0.34 0.0 0 1 38.88 5.54
  L 37.12 5.47
  A 0.34 0.34 0.0 0 0 36.92 6.09
  L 38.39 7.06
  A 0.34 0.34 0.0 0 1 38.52 7.46
  L 37.91 9.11
  A 0.34 0.34 0.0 0 0 38.44 9.49
  L 39.81 8.40
  A 0.34 0.34 0.0 0 1 40.23 8.40
  L 41.61 9.49
  A 0.34 0.34 0.0 0 0 42.14 9.10
  L 41.52 7.46
  A 0.34 0.34 0.0 0 1 41.65 7.06
  L 43.12 6.08
  A 0.34 0.34 0.0 0 0 42.91 5.46
  L 41.16 5.54
  Z
  M 57.09 5.50
  A 0.35 0.35 0.0 0 1 56.74 5.25
  L 56.26 3.63
  A 0.35 0.35 0.0 0 0 55.59 3.63
  L 55.12 5.25
  A 0.35 0.35 0.0 0 1 54.77 5.50
  L 53.08 5.46
  A 0.35 0.35 0.0 0 0 52.87 6.10
  L 54.27 7.05
  A 0.35 0.35 0.0 0 1 54.40 7.45
  L 53.84 9.05
  A 0.35 0.35 0.0 0 0 54.38 9.44
  L 55.72 8.41
  A 0.35 0.35 0.0 0 1 56.15 8.40
  L 57.49 9.44
  A 0.35 0.35 0.0 0 0 58.03 9.04
  L 57.46 7.45
  A 0.35 0.35 0.0 0 1 57.59 7.04
  L 58.98 6.08
  A 0.35 0.35 0.0 0 0 58.78 5.45
  L 57.09 5.50
  Z
  M 73.01 5.50
  A 0.35 0.35 0.0 0 1 72.67 5.25
  L 72.20 3.64
  A 0.35 0.35 0.0 0 0 71.53 3.64
  L 71.05 5.24
  A 0.35 0.35 0.0 0 1 70.70 5.49
  L 69.03 5.43
  A 0.35 0.35 0.0 0 0 68.82 6.07
  L 70.19 7.03
  A 0.35 0.35 0.0 0 1 70.32 7.43
  L 69.76 9.00
  A 0.35 0.35 0.0 0 0 70.30 9.40
  L 71.63 8.39
  A 0.35 0.35 0.0 0 1 72.05 8.39
  L 73.38 9.42
  A 0.35 0.35 0.0 0 0 73.92 9.03
  L 73.37 7.45
  A 0.35 0.35 0.0 0 1 73.51 7.04
  L 74.89 6.10
  A 0.35 0.35 0.0 0 0 74.68 5.46
  L 73.01 5.50
  Z
  M 88.90 5.53
  A 0.34 0.34 0.0 0 1 88.56 5.28
  L 88.09 3.63
  A 0.34 0.34 0.0 0 0 87.43 3.62
  L 86.95 5.28
  A 0.34 0.34 0.0 0 1 86.61 5.52
  L 84.89 5.46
  A 0.34 0.34 0.0 0 0 84.69 6.08
  L 86.11 7.05
  A 0.34 0.34 0.0 0 1 86.24 7.44
  L 85.65 9.06
  A 0.34 0.34 0.0 0 0 86.17 9.45
  L 87.54 8.39
  A 0.34 0.34 0.0 0 1 87.95 8.39
  L 89.31 9.46
  A 0.34 0.34 0.0 0 0 89.84 9.07
  L 89.26 7.45
  A 0.34 0.34 0.0 0 1 89.39 7.06
  L 90.81 6.10
  A 0.34 0.34 0.0 0 0 90.62 5.48
  L 88.90 5.53
  Z
  M 17.32 12.31
  A 0.35 0.35 0.0 0 1 16.97 12.06
  L 16.49 10.46
  A 0.35 0.35 0.0 0 0 15.82 10.47
  L 15.35 12.07
  A 0.35 0.35 0.0 0 1 15.01 12.32
  L 13.34 12.29
  A 0.35 0.35 0.0 0 0 13.14 12.92
  L 14.52 13.86
  A 0.35 0.35 0.0 0 1 14.65 14.27
  L 14.10 15.84
  A 0.35 0.35 0.0 0 0 14.65 16.23
  L 15.97 15.21
  A 0.35 0.35 0.0 0 1 16.39 15.21
  L 17.72 16.22
  A 0.35 0.35 0.0 0 0 18.26 15.82
  L 17.70 14.25
  A 0.35 0.35 0.0 0 1 17.83 13.85
  L 19.19 12.89
  A 0.35 0.35 0.0 0 0 18.98 12.26
  L 17.32 12.31
  Z
  M 30.56 12.38
  L 29.27 12.38
  Q 28.41 12.38 29.12 12.86
  L 30.17 13.57
  A 0.84 0.83 26.2 0 1 30.49 14.50
  L 30.04 15.94
  Q 29.81 16.70 30.47 16.26
  Q 31.06 15.87 31.54 15.34
  A 0.70 0.70 0.0 0 1 32.50 15.27
  L 33.60 16.15
  Q 34.58 16.94 34.04 15.80
  Q 33.11 13.85 34.92 12.91
  Q 35.83 12.44 34.81 12.30
  Q 34.22 12.22 33.60 12.29
  Q 32.95 12.36 32.76 11.74
  L 32.39 10.53
  Q 32.08 9.50 31.77 10.53
  L 31.41 11.75
  A 0.89 0.89 0.0 0 1 30.56 12.38
  Z
  M 46.56 12.38
  Q 45.89 12.49 45.19 12.29
  A 0.34 0.34 0.0 0 0 44.99 12.94
  Q 47.17 13.70 46.00 15.81
  Q 45.48 16.75 46.38 16.17
  Q 46.99 15.77 47.51 15.33
  Q 48.05 14.87 48.56 15.37
  Q 48.97 15.78 49.44 16.08
  Q 50.32 16.62 49.90 15.67
  Q 49.09 13.84 50.83 12.92
  Q 51.75 12.44 50.72 12.29
  Q 50.25 12.23 49.76 12.30
  Q 48.90 12.42 48.65 11.59
  L 48.30 10.49
  Q 47.96 9.42 47.66 10.50
  L 47.34 11.69
  A 0.96 0.95 -86.1 0 1 46.56 12.38
  Z
  M 65.06 12.31
  A 0.35 0.35 0.0 0 1 64.72 12.06
  L 64.24 10.45
  A 0.35 0.35 0.0 0 0 63.57 10.45
  L 63.10 12.06
  A 0.35 0.35 0.0 0 1 62.75 12.31
  L 61.07 12.27
  A 0.35 0.35 0.0 0 0 60.86 12.91
  L 62.25 13.86
  A 0.35 0.35 0.0 0 1 62.39 14.26
  L 61.82 15.85
  A 0.35 0.35 0.0 0 0 62.37 16.24
  L 63.70 15.21
  A 0.35 0.35 0.0 0 1 64.13 15.21
  L 65.46 16.24
  A 0.35 0.35 0.0 0 0 66.00 15.84
  L 65.44 14.26
  A 0.35 0.35 0.0 0 1 65.57 13.85
  L 66.95 12.90
  A 0.35 0.35 0.0 0 0 66.74 12.26
  L 65.06 12.31
  Z
  M 78.28 12.28
  Q 77.64 12.28 77.02 12.38
  Q 76.04 12.53 76.95 12.92
  Q 78.99 13.81 77.77 15.79
  Q 77.20 16.71 78.16 16.22
  Q 78.74 15.93 79.17 15.39
  A 0.85 0.84 -39.6 0 1 80.57 15.52
  Q 80.85 16.03 81.43 16.19
  Q 82.18 16.39 81.80 15.70
  Q 80.75 13.79 82.73 12.91
  Q 83.56 12.54 82.68 12.34
  Q 82.01 12.18 81.31 12.31
  A 0.66 0.66 0.0 0 1 80.53 11.75
  Q 80.44 11.05 80.05 10.44
  Q 79.66 9.84 79.48 10.53
  L 79.20 11.57
  Q 79.02 12.28 78.28 12.28
  Z
  M 24.85 18.54
  L 24.38 17.25
  Q 24.07 16.37 23.82 17.27
  L 23.48 18.50
  A 0.86 0.85 -84.8 0 1 22.75 19.12
  L 21.27 19.29
  Q 20.24 19.41 21.20 19.82
  L 22.13 20.22
  Q 22.77 20.50 22.57 21.16
  L 22.13 22.59
  Q 21.83 23.59 22.63 22.93
  L 23.57 22.15
  Q 24.15 21.67 24.69 22.20
  Q 25.08 22.59 25.56 22.82
  Q 26.50 23.28 26.04 22.33
  Q 25.18 20.58 26.96 19.81
  Q 28.00 19.35 26.88 19.17
  Q 26.27 19.07 25.68 19.10
  Q 25.06 19.13 24.85 18.54
  Z
  M 38.71 19.09
  L 37.24 19.30
  Q 36.04 19.46 37.19 19.84
  Q 39.11 20.45 38.14 22.34
  Q 37.65 23.29 38.61 22.81
  Q 39.04 22.58 39.42 22.25
  A 0.88 0.88 0.0 0 1 40.52 22.17
  L 41.49 22.84
  Q 42.44 23.50 41.96 22.45
  Q 41.05 20.51 43.05 19.69
  Q 43.88 19.35 42.99 19.21
  Q 42.26 19.09 41.53 19.09
  Q 40.89 19.09 40.70 18.48
  L 40.30 17.24
  Q 39.98 16.22 39.71 17.26
  L 39.39 18.48
  A 0.81 0.80 -86.8 0 1 38.71 19.09
  Z
  M 54.68 19.08
  L 53.30 19.28
  Q 52.00 19.48 53.24 19.93
  Q 53.72 20.11 54.10 20.42
  Q 54.55 20.80 54.37 21.35
  L 54.00 22.46
  Q 53.70 23.37 54.49 22.83
  L 55.45 22.16
  Q 55.99 21.79 56.49 22.21
  Q 56.97 22.61 57.53 22.88
  Q 58.26 23.22 57.90 22.50
  Q 56.83 20.39 59.06 19.74
  Q 59.11 19.72 59.12 19.67
  Q 59.16 19.53 59.16 19.39
  Q 59.14 19.00 58.76 19.10
  Q 56.59 19.66 56.24 17.31
  Q 56.08 16.25 55.66 17.24
  Q 55.44 17.76 55.38 18.35
  Q 55.31 18.99 54.68 19.08
  Z
  M 70.24 21.02
  Q 70.10 21.92 69.88 22.76
  Q 69.67 23.59 70.25 22.96
  Q 71.81 21.27 73.28 22.83
  Q 74.19 23.79 73.83 22.52
  L 73.46 21.22
  A 0.81 0.80 68.3 0 1 73.85 20.30
  L 74.77 19.79
  Q 75.95 19.14 74.60 19.16
  L 73.34 19.17
  Q 72.66 19.18 72.54 18.51
  Q 72.41 17.77 72.09 17.16
  Q 71.74 16.50 71.56 17.23
  L 71.26 18.45
  Q 71.12 19.01 70.55 19.08
  L 69.07 19.27
  Q 67.94 19.41 68.98 19.87
  L 69.82 20.25
  Q 70.33 20.47 70.24 21.02
  Z
  M 88.93 19.10
  A 0.35 0.35 0.0 0 1 88.59 18.85
  L 88.10 17.25
  A 0.35 0.35 0.0 0 0 87.43 17.26
  L 86.96 18.85
  A 0.35 0.35 0.0 0 1 86.62 19.11
  L 84.96 19.07
  A 0.35 0.35 0.0 0 0 84.75 19.71
  L 86.12 20.65
  A 0.35 0.35 0.0 0 1 86.26 21.05
  L 85.71 22.63
  A 0.35 0.35 0.0 0 0 86.25 23.02
  L 87.57 22.00
  A 0.35 0.35 0.0 0 1 88.00 22.00
  L 89.33 23.01
  A 0.35 0.35 0.0 0 0 89.87 22.61
  L 89.31 21.04
  A 0.35 0.35 0.0 0 1 89.44 20.64
  L 90.81 19.69
  A 0.35 0.35 0.0 0 0 90.60 19.05
  L 88.93 19.10
  Z
  M 8.96 18.59
  L 8.59 17.51
  Q 8.14 16.21 7.90 17.57
  Q 7.56 19.50 5.40 19.27
  Q 4.51 19.17 5.23 19.70
  Q 5.70 20.06 6.27 20.29
  A 0.74 0.73 -66.0 0 1 6.65 21.30
  Q 6.32 21.93 6.20 22.67
  Q 6.04 23.65 6.77 22.98
  L 7.64 22.19
  Q 8.10 21.77 8.62 22.12
  L 9.69 22.86
  Q 10.56 23.46 10.20 22.47
  L 9.85 21.51
  A 1.01 1.00 -22.5 0 1 10.38 20.24
  Q 10.82 20.04 11.20 19.71
  Q 11.90 19.12 10.98 19.12
  L 9.71 19.12
  Q 9.14 19.13 8.96 18.59
  Z
  M 30.48 28.06
  L 30.22 28.97
  Q 29.81 30.38 30.91 29.41
  Q 32.00 28.45 33.04 29.27
  Q 34.31 30.29 33.87 28.72
  Q 33.49 27.36 34.87 26.62
  Q 35.95 26.04 34.73 25.99
  L 33.55 25.94
  Q 32.92 25.92 32.75 25.31
  L 32.41 24.04
  Q 32.19 23.24 31.83 23.99
  Q 31.55 24.57 31.46 25.23
  Q 31.37 25.89 30.71 25.93
  L 29.33 26.02
  Q 28.26 26.09 29.19 26.63
  L 30.13 27.18
  Q 30.65 27.48 30.48 28.06
  Z
  M 62.31 27.95
  Q 62.25 28.55 61.96 29.11
  Q 61.49 30.01 62.41 29.61
  Q 62.89 29.40 63.30 29.07
  Q 63.77 28.70 64.32 28.94
  Q 64.78 29.14 65.12 29.49
  Q 65.78 30.16 65.73 29.22
  Q 65.69 28.59 65.54 28.00
  Q 65.43 27.54 65.81 27.27
  L 66.85 26.53
  Q 67.61 26.00 66.68 25.97
  L 65.38 25.94
  Q 64.79 25.92 64.61 25.36
  L 64.16 23.92
  Q 63.84 22.88 63.59 23.95
  L 63.29 25.26
  Q 63.18 25.73 62.70 25.86
  Q 61.96 26.05 61.10 25.98
  Q 60.43 25.93 60.86 26.44
  Q 61.20 26.85 61.72 27.03
  A 0.87 0.86 12.4 0 1 62.31 27.95
  Z
  M 80.95 25.93
  A 0.34 0.34 0.0 0 1 80.61 25.68
  L 80.14 24.01
  A 0.34 0.34 0.0 0 0 79.48 24.01
  L 79.01 25.68
  A 0.34 0.34 0.0 0 1 78.67 25.93
  L 76.94 25.86
  A 0.34 0.34 0.0 0 0 76.74 26.48
  L 78.17 27.45
  A 0.34 0.34 0.0 0 1 78.30 27.85
  L 77.71 29.48
  A 0.34 0.34 0.0 0 0 78.24 29.86
  L 79.60 28.79
  A 0.34 0.34 0.0 0 1 80.02 28.79
  L 81.38 29.86
  A 0.34 0.34 0.0 0 0 81.91 29.48
  L 81.32 27.85
  A 0.34 0.34 0.0 0 1 81.45 27.45
  L 82.88 26.48
  A 0.34 0.34 0.0 0 0 82.68 25.86
  L 80.95 25.93
  Z
  M 14.97 25.86
  Q 14.24 26.07 13.40 26.00
  Q 12.63 25.94 13.19 26.47
  Q 13.62 26.88 14.16 27.11
  Q 14.57 27.29 14.57 27.74
  Q 14.56 28.52 14.17 29.26
  Q 14.06 29.48 14.21 29.67
  Q 14.24 29.71 14.29 29.74
  Q 14.54 29.85 14.73 29.66
  Q 15.17 29.22 15.71 28.98
  Q 16.18 28.78 16.62 29.02
  L 17.65 29.57
  Q 18.43 30.00 18.13 29.16
  L 17.76 28.09
  A 0.68 0.67 69.6 0 1 18.14 27.25
  Q 18.85 26.94 19.30 26.39
  Q 19.79 25.79 19.03 25.96
  Q 16.76 26.46 16.52 24.23
  Q 16.41 23.20 15.87 24.08
  Q 15.60 24.51 15.61 25.02
  Q 15.61 25.69 14.97 25.86
  Z
  M 47.23 25.66
  A 0.28 0.28 0.0 0 1 46.98 25.86
  L 45.07 26.00
  A 0.28 0.28 0.0 0 0 44.93 26.51
  L 46.38 27.50
  A 0.28 0.28 0.0 0 1 46.49 27.82
  L 45.99 29.38
  A 0.28 0.28 0.0 0 0 46.41 29.70
  L 47.85 28.82
  A 0.28 0.28 0.0 0 1 48.15 28.82
  L 49.49 29.65
  A 0.28 0.28 0.0 0 0 49.91 29.35
  L 49.59 27.74
  A 0.28 0.28 0.0 0 1 49.71 27.46
  L 51.09 26.48
  A 0.28 0.28 0.0 0 0 50.95 25.97
  L 49.09 25.87
  A 0.28 0.28 0.0 0 1 48.84 25.68
  L 48.25 23.90
  A 0.28 0.28 0.0 0 0 47.71 23.92
  L 47.23 25.66
  Z
  M 9.37 32.72
  A 0.35 0.35 0.0 0 1 9.04 32.47
  L 8.56 30.98
  A 0.35 0.35 0.0 0 0 7.90 30.98
  L 7.42 32.47
  A 0.35 0.35 0.0 0 1 7.09 32.72
  L 5.52 32.71
  A 0.35 0.35 0.0 0 0 5.32 33.34
  L 6.59 34.26
  A 0.35 0.35 0.0 0 1 6.71 34.65
  L 6.22 36.14
  A 0.35 0.35 0.0 0 0 6.76 36.53
  L 8.02 35.60
  A 0.35 0.35 0.0 0 1 8.44 35.60
  L 9.70 36.53
  A 0.35 0.35 0.0 0 0 10.24 36.14
  L 9.75 34.65
  A 0.35 0.35 0.0 0 1 9.87 34.26
  L 11.14 33.34
  A 0.35 0.35 0.0 0 0 10.94 32.71
  L 9.37 32.72
  Z
  M 22.55 32.73
  L 21.55 32.74
  Q 20.58 32.74 21.34 33.34
  L 22.19 34.02
  Q 22.63 34.37 22.49 34.91
  L 22.16 36.24
  Q 21.99 36.90 22.59 36.58
  Q 23.09 36.31 23.47 35.84
  Q 23.85 35.38 24.35 35.70
  Q 24.98 36.12 25.67 36.45
  Q 26.50 36.85 26.07 36.04
  Q 25.17 34.32 26.96 33.36
  Q 27.94 32.82 26.83 32.75
  Q 26.25 32.72 25.70 32.76
  Q 25.09 32.81 24.88 32.22
  L 24.44 30.93
  Q 24.24 30.35 23.92 30.88
  Q 23.60 31.42 23.44 32.03
  Q 23.27 32.73 22.55 32.73
  Z
  M 41.76 35.41
  A 1.12 1.12 0.0 0 1 42.24 33.87
  Q 42.64 33.67 42.94 33.33
  Q 43.61 32.57 42.61 32.75
  Q 40.63 33.09 40.41 31.06
  Q 40.31 30.18 39.84 30.92
  Q 39.49 31.47 39.30 32.13
  Q 39.14 32.72 38.52 32.73
  L 37.51 32.75
  Q 36.33 32.77 37.35 33.36
  Q 38.95 34.28 38.15 36.01
  Q 37.66 37.08 38.67 36.48
  Q 39.03 36.26 39.32 35.92
  Q 39.83 35.33 40.47 35.78
  L 41.40 36.43
  Q 42.11 36.91 41.99 36.07
  Q 41.94 35.72 41.76 35.41
  Z
  M 57.51 34.64
  A 0.31 0.31 0.0 0 1 57.62 34.31
  L 59.00 33.26
  A 0.31 0.31 0.0 0 0 58.81 32.70
  L 57.08 32.71
  A 0.31 0.31 0.0 0 1 56.78 32.49
  L 56.27 30.82
  A 0.31 0.31 0.0 0 0 55.68 30.80
  L 55.08 32.48
  A 0.31 0.31 0.0 0 1 54.79 32.69
  L 53.20 32.70
  A 0.31 0.31 0.0 0 0 53.02 33.26
  L 54.28 34.17
  A 0.31 0.31 0.0 0 1 54.40 34.51
  L 53.91 36.29
  A 0.31 0.31 0.0 0 0 54.40 36.62
  L 55.73 35.58
  A 0.31 0.31 0.0 0 1 56.10 35.57
  L 57.49 36.56
  A 0.31 0.31 0.0 0 0 57.96 36.23
  L 57.51 34.64
  Z
  M 73.04 32.71
  A 0.35 0.35 0.0 0 1 72.71 32.46
  L 72.22 30.96
  A 0.35 0.35 0.0 0 0 71.56 30.96
  L 71.06 32.46
  A 0.35 0.35 0.0 0 1 70.73 32.70
  L 69.16 32.69
  A 0.35 0.35 0.0 0 0 68.95 33.33
  L 70.22 34.26
  A 0.35 0.35 0.0 0 1 70.34 34.65
  L 69.85 36.15
  A 0.35 0.35 0.0 0 0 70.39 36.54
  L 71.67 35.62
  A 0.35 0.35 0.0 0 1 72.08 35.62
  L 73.35 36.55
  A 0.35 0.35 0.0 0 0 73.89 36.16
  L 73.41 34.66
  A 0.35 0.35 0.0 0 1 73.54 34.27
  L 74.82 33.35
  A 0.35 0.35 0.0 0 0 74.61 32.71
  L 73.04 32.71
  Z
  M 88.94 32.72
  A 0.35 0.35 0.0 0 1 88.59 32.47
  L 88.13 30.87
  A 0.35 0.35 0.0 0 0 87.46 30.87
  L 86.98 32.46
  A 0.35 0.35 0.0 0 1 86.64 32.71
  L 84.97 32.66
  A 0.35 0.35 0.0 0 0 84.76 33.30
  L 86.13 34.24
  A 0.35 0.35 0.0 0 1 86.26 34.65
  L 85.69 36.21
  A 0.35 0.35 0.0 0 0 86.23 36.61
  L 87.56 35.60
  A 0.35 0.35 0.0 0 1 87.98 35.61
  L 89.30 36.63
  A 0.35 0.35 0.0 0 0 89.84 36.24
  L 89.29 34.67
  A 0.35 0.35 0.0 0 1 89.43 34.26
  L 90.81 33.33
  A 0.35 0.35 0.0 0 0 90.60 32.69
  L 88.94 32.72
  Z
  M 14.52 41.72
  L 14.18 42.96
  Q 14.03 43.53 14.61 43.41
  Q 14.82 43.37 14.93 43.20
  Q 15.86 41.74 17.13 42.90
  Q 18.58 44.23 17.94 42.37
  Q 17.48 41.02 18.93 40.15
  Q 20.01 39.50 18.75 39.51
  L 17.74 39.52
  Q 17.06 39.53 16.85 38.88
  L 16.50 37.73
  Q 16.23 36.85 15.91 37.72
  L 15.42 39.03
  Q 15.24 39.52 14.71 39.53
  L 13.30 39.55
  Q 12.49 39.56 13.15 40.03
  L 14.18 40.77
  Q 14.67 41.13 14.52 41.72
  Z
  M 30.67 39.50
  Q 29.97 39.48 29.26 39.59
  Q 28.39 39.72 29.18 40.10
  Q 31.02 40.99 30.17 42.80
  Q 29.69 43.83 30.65 43.24
  Q 31.12 42.95 31.52 42.61
  Q 32.06 42.17 32.60 42.60
  L 33.51 43.32
  Q 34.29 43.94 34.05 42.97
  L 33.74 41.70
  A 0.80 0.79 66.2 0 1 34.07 40.84
  Q 34.55 40.52 34.95 40.11
  Q 35.67 39.35 34.64 39.52
  Q 32.65 39.85 32.42 37.83
  Q 32.31 36.86 31.85 37.72
  Q 31.54 38.31 31.37 38.97
  Q 31.23 39.52 30.67 39.50
  Z
  M 48.63 38.82
  Q 48.59 38.27 48.35 37.80
  Q 47.91 36.93 47.63 37.86
  L 47.30 38.95
  A 0.80 0.79 -82.2 0 1 46.57 39.51
  L 45.25 39.56
  Q 44.17 39.59 45.13 40.10
  Q 46.95 41.06 46.04 42.83
  Q 45.62 43.66 46.47 43.28
  Q 47.04 43.03 47.53 42.60
  Q 48.10 42.10 48.60 42.67
  Q 48.97 43.09 49.48 43.35
  Q 50.19 43.70 49.98 42.93
  L 49.65 41.65
  A 0.70 0.69 -27.8 0 1 49.88 40.93
  L 50.97 40.03
  Q 51.58 39.53 50.79 39.51
  L 49.33 39.48
  Q 48.68 39.46 48.63 38.82
  Z
  M 64.54 38.78
  Q 64.50 38.23 64.23 37.75
  Q 63.69 36.81 63.57 37.88
  Q 63.36 39.76 61.31 39.60
  Q 60.04 39.49 61.14 40.14
  Q 62.81 41.12 61.98 42.78
  Q 61.46 43.80 62.47 43.26
  Q 62.99 42.99 63.41 42.58
  A 0.76 0.75 -45.3 0 1 64.45 42.57
  Q 64.82 42.92 65.18 43.28
  Q 65.35 43.45 65.59 43.43
  Q 65.76 43.41 65.85 43.20
  Q 65.94 42.97 65.83 42.76
  Q 65.02 41.14 66.67 40.14
  Q 67.74 39.50 66.50 39.50
  L 65.30 39.49
  Q 64.59 39.49 64.54 38.78
  Z
  M 80.97 39.50
  A 0.35 0.35 0.0 0 1 80.64 39.25
  L 80.15 37.72
  A 0.35 0.35 0.0 0 0 79.49 37.72
  L 78.99 39.24
  A 0.35 0.35 0.0 0 1 78.66 39.49
  L 77.06 39.47
  A 0.35 0.35 0.0 0 0 76.85 40.11
  L 78.15 41.05
  A 0.35 0.35 0.0 0 1 78.27 41.44
  L 77.76 42.96
  A 0.35 0.35 0.0 0 0 78.30 43.35
  L 79.60 42.41
  A 0.35 0.35 0.0 0 1 80.01 42.41
  L 81.30 43.36
  A 0.35 0.35 0.0 0 0 81.84 42.97
  L 81.34 41.45
  A 0.35 0.35 0.0 0 1 81.47 41.06
  L 82.78 40.13
  A 0.35 0.35 0.0 0 0 82.57 39.49
  L 80.97 39.50
  Z
  M 38.58 46.33
  Q 37.95 46.48 37.31 46.43
  Q 36.21 46.35 37.19 46.86
  Q 39.03 47.83 38.13 49.63
  Q 37.98 49.95 38.24 50.18
  Q 38.28 50.22 38.33 50.22
  Q 38.71 50.24 38.94 49.94
  Q 39.27 49.50 39.75 49.24
  Q 40.28 48.94 40.64 49.44
  Q 40.93 49.87 41.40 50.08
  Q 42.19 50.44 41.89 49.63
  Q 41.25 47.89 42.88 46.82
  Q 43.80 46.22 42.71 46.36
  Q 40.64 46.62 40.31 44.55
  Q 40.14 43.50 39.79 44.50
  L 39.41 45.60
  Q 39.20 46.19 38.58 46.33
  Z
  M 56.29 49.26
  Q 56.77 49.53 57.13 49.99
  Q 57.67 50.67 57.78 49.81
  Q 57.86 49.19 57.61 48.59
  A 0.80 0.79 -30.1 0 1 57.86 47.67
  L 58.90 46.83
  Q 59.60 46.27 58.71 46.28
  L 57.48 46.28
  Q 56.77 46.29 56.63 45.59
  Q 56.49 44.94 56.14 44.38
  Q 55.74 43.74 55.67 44.49
  Q 55.47 46.58 53.48 46.44
  Q 52.22 46.36 53.28 47.05
  L 54.00 47.52
  A 0.84 0.82 -67.4 0 1 54.35 48.39
  L 54.03 49.75
  Q 53.82 50.67 54.56 50.08
  L 55.50 49.32
  A 0.71 0.70 40.2 0 1 56.29 49.26
  Z
  M 88.91 46.31
  A 0.35 0.35 0.0 0 1 88.57 46.06
  L 88.09 44.45
  A 0.35 0.35 0.0 0 0 87.42 44.45
  L 86.94 46.05
  A 0.35 0.35 0.0 0 1 86.59 46.30
  L 84.92 46.26
  A 0.35 0.35 0.0 0 0 84.71 46.90
  L 86.09 47.86
  A 0.35 0.35 0.0 0 1 86.22 48.26
  L 85.66 49.84
  A 0.35 0.35 0.0 0 0 86.20 50.23
  L 87.54 49.22
  A 0.35 0.35 0.0 0 1 87.96 49.22
  L 89.29 50.24
  A 0.35 0.35 0.0 0 0 89.83 49.84
  L 89.28 48.26
  A 0.35 0.35 0.0 0 1 89.41 47.86
  L 90.79 46.91
  A 0.35 0.35 0.0 0 0 90.58 46.27
  L 88.91 46.31
  Z
  M 8.83 45.55
  Q 8.82 44.94 8.45 44.48
  Q 8.00 43.91 7.91 44.63
  Q 7.63 46.72 5.61 46.40
  Q 4.46 46.21 5.35 46.96
  Q 5.63 47.19 5.96 47.33
  A 1.13 1.12 29.5 0 1 6.44 49.05
  Q 6.11 49.50 6.19 50.02
  Q 6.30 50.77 6.78 50.18
  Q 8.27 48.35 9.73 50.12
  Q 10.26 50.76 10.17 49.93
  Q 10.09 49.26 9.87 48.63
  A 0.93 0.91 61.1 0 1 10.15 47.62
  L 11.13 46.80
  Q 11.77 46.27 10.94 46.27
  L 9.54 46.26
  Q 8.84 46.26 8.83 45.55
  Z
  M 24.77 45.54
  L 24.47 44.67
  Q 24.15 43.74 23.82 44.67
  L 23.43 45.79
  Q 23.23 46.35 22.63 46.37
  Q 21.97 46.38 21.34 46.50
  Q 20.58 46.65 21.30 46.95
  Q 23.18 47.76 22.17 49.68
  Q 22.03 49.94 22.20 50.18
  Q 22.23 50.22 22.27 50.24
  Q 22.60 50.39 22.83 50.11
  Q 24.22 48.37 25.51 50.05
  Q 25.91 50.58 25.98 49.92
  Q 26.05 49.27 25.83 48.60
  Q 25.64 48.02 26.10 47.62
  L 26.95 46.90
  Q 27.70 46.26 26.72 46.26
  L 25.80 46.27
  Q 25.02 46.27 24.77 45.54
  Z
  M 70.44 46.35
  L 69.00 46.36
  Q 68.83 46.36 68.78 46.40
  Q 68.64 46.51 68.71 46.66
  Q 68.84 46.94 69.12 47.05
  Q 70.83 47.74 69.99 49.58
  Q 69.36 50.96 70.51 49.97
  Q 71.48 49.13 72.42 49.17
  A 0.46 0.45 -89.4 0 1 72.86 49.63
  Q 72.85 50.02 73.17 50.12
  Q 74.04 50.39 73.71 49.54
  Q 73.02 47.69 74.86 46.88
  Q 75.43 46.63 74.86 46.39
  Q 74.26 46.14 73.58 46.31
  A 0.84 0.84 0.0 0 1 72.58 45.75
  L 72.18 44.50
  A 0.31 0.31 0.0 0 0 71.59 44.50
  L 71.16 45.82
  A 0.76 0.75 -81.0 0 1 70.44 46.35
  Z
  M 30.65 53.14
  Q 29.95 53.16 29.25 53.30
  Q 28.21 53.50 29.21 53.83
  Q 31.08 54.46 30.20 56.29
  Q 29.66 57.41 30.75 56.81
  Q 31.12 56.60 31.42 56.27
  A 0.87 0.86 -49.8 0 1 32.59 56.17
  L 33.45 56.85
  Q 34.30 57.52 34.02 56.47
  L 33.70 55.25
  Q 33.54 54.64 34.09 54.34
  L 35.05 53.81
  Q 36.00 53.29 34.92 53.17
  Q 34.24 53.10 33.54 53.10
  Q 32.92 53.10 32.74 52.50
  L 32.38 51.26
  Q 32.08 50.23 31.79 51.27
  L 31.43 52.54
  A 0.84 0.83 7.1 0 1 30.65 53.14
  Z
  M 62.56 53.11
  L 61.24 53.28
  Q 60.17 53.43 61.15 53.89
  Q 61.82 54.21 62.30 54.74
  A 0.40 0.39 36.1 0 1 62.37 55.16
  Q 62.06 55.83 61.93 56.53
  Q 61.72 57.65 62.52 56.83
  Q 64.01 55.28 65.34 56.92
  Q 65.81 57.49 65.86 56.75
  Q 65.90 56.20 65.61 55.71
  Q 65.32 55.20 65.63 54.71
  Q 66.07 54.04 66.89 53.80
  Q 67.08 53.74 67.14 53.56
  Q 67.28 53.14 66.58 53.15
  A 0.35 0.31 -48.6 0 0 66.50 53.16
  Q 65.70 53.31 64.97 53.02
  A 0.74 0.72 7.5 0 1 64.53 52.46
  Q 64.45 51.81 64.16 51.22
  Q 63.79 50.44 63.59 51.28
  L 63.30 52.44
  Q 63.16 53.03 62.56 53.11
  Z
  M 80.45 52.41
  Q 80.33 51.75 80.01 51.16
  Q 79.71 50.61 79.54 51.22
  L 79.14 52.66
  Q 79.04 53.04 78.64 53.09
  L 76.99 53.26
  Q 76.10 53.36 76.86 53.84
  Q 77.26 54.09 77.71 54.24
  Q 78.51 54.50 78.25 55.30
  L 77.77 56.76
  Q 77.54 57.45 78.16 57.06
  Q 78.75 56.70 79.24 56.19
  A 0.83 0.83 0.0 0 1 80.42 56.17
  L 81.24 56.95
  Q 81.78 57.48 81.75 56.72
  Q 81.72 56.02 81.46 55.33
  A 0.85 0.84 65.3 0 1 81.83 54.30
  L 82.76 53.77
  Q 83.66 53.26 82.63 53.16
  Q 82.01 53.10 81.39 53.14
  Q 80.59 53.19 80.45 52.41
  Z
  M 16.89 52.53
  L 16.48 51.43
  Q 16.13 50.51 15.84 51.45
  L 15.52 52.51
  Q 15.33 53.12 14.70 53.15
  Q 14.01 53.18 13.37 53.29
  Q 12.34 53.48 13.32 53.84
  Q 13.90 54.05 14.35 54.43
  A 0.83 0.83 0.0 0 1 14.55 55.43
  Q 14.26 56.00 14.20 56.60
  Q 14.10 57.64 14.79 56.85
  Q 16.19 55.22 17.64 56.93
  Q 18.15 57.54 18.10 56.75
  Q 18.04 55.99 17.83 55.33
  Q 17.63 54.73 18.16 54.39
  L 19.21 53.72
  Q 20.13 53.12 19.03 53.12
  L 17.75 53.12
  Q 17.11 53.13 16.89 52.53
  Z
  M 46.74 53.12
  L 45.07 53.31
  Q 44.79 53.34 44.80 53.62
  Q 44.81 53.79 44.99 53.84
  Q 47.30 54.49 45.93 56.53
  A 0.32 0.32 0.0 0 0 46.37 56.97
  L 47.59 56.14
  Q 48.24 55.70 48.71 56.32
  Q 49.02 56.73 49.49 56.89
  Q 50.32 57.17 49.92 56.40
  Q 48.90 54.43 51.07 53.75
  Q 51.14 53.73 51.17 53.66
  Q 51.23 53.52 51.21 53.38
  Q 51.16 52.98 50.77 53.08
  Q 48.55 53.66 48.32 51.35
  Q 48.25 50.67 47.82 51.20
  Q 47.41 51.72 47.37 52.44
  A 0.72 0.71 88.1 0 1 46.74 53.12
  Z
  M 6.90 59.95
  L 5.45 59.99
  Q 4.39 60.02 5.29 60.57
  L 6.22 61.14
  Q 6.82 61.51 6.60 62.18
  L 6.23 63.29
  Q 5.89 64.29 6.75 63.68
  L 7.46 63.17
  A 1.23 1.23 0.0 0 1 8.76 63.08
  L 9.66 63.55
  Q 10.49 63.99 10.16 63.11
  L 9.84 62.23
  Q 9.63 61.66 10.14 61.33
  Q 10.77 60.94 11.32 60.40
  Q 11.99 59.74 11.07 59.96
  Q 8.83 60.50 8.60 58.26
  Q 8.51 57.39 7.98 58.08
  Q 7.61 58.55 7.62 59.21
  A 0.74 0.74 0.0 0 1 6.90 59.95
  Z
  M 22.88 59.93
  L 21.47 60.02
  Q 20.01 60.10 21.35 60.67
  Q 22.93 61.33 22.33 62.86
  Q 21.73 64.40 23.06 63.42
  L 23.54 63.06
  A 0.90 0.88 40.8 0 1 24.49 63.00
  L 25.66 63.62
  Q 26.45 64.04 26.08 63.22
  Q 25.81 62.63 25.77 62.00
  A 0.90 0.89 76.5 0 1 26.30 61.12
  Q 26.87 60.88 27.28 60.42
  Q 27.83 59.80 27.02 59.97
  Q 24.76 60.45 24.50 58.27
  Q 24.38 57.23 23.85 58.13
  Q 23.54 58.67 23.51 59.29
  Q 23.49 59.89 22.88 59.93
  Z
  M 40.74 59.38
  L 40.35 58.07
  Q 40.07 57.12 39.77 58.07
  L 39.36 59.37
  Q 39.15 60.04 38.46 59.96
  Q 37.72 59.87 37.06 60.12
  Q 36.37 60.38 37.07 60.61
  Q 39.19 61.31 38.04 63.22
  Q 37.92 63.43 38.09 63.61
  Q 38.14 63.65 38.19 63.66
  Q 38.63 63.73 38.95 63.42
  Q 40.09 62.34 41.35 63.55
  Q 41.92 64.10 41.92 63.31
  Q 41.91 62.75 41.73 62.23
  Q 41.52 61.63 42.04 61.26
  L 42.92 60.64
  Q 43.75 60.05 42.74 60.00
  L 41.44 59.94
  Q 40.89 59.91 40.74 59.38
  Z
  M 54.66 59.89
  Q 53.92 59.93 53.16 60.05
  Q 52.07 60.23 53.10 60.63
  Q 55.07 61.40 54.00 63.13
  Q 53.55 63.86 54.37 63.61
  Q 55.08 63.40 55.78 62.88
  A 0.45 0.45 0.0 0 1 56.37 62.92
  Q 56.84 63.40 57.41 63.62
  Q 58.16 63.91 57.84 63.17
  Q 57.00 61.29 59.04 60.49
  Q 59.74 60.21 59.01 60.05
  Q 58.26 59.90 57.42 59.92
  Q 56.80 59.94 56.63 59.34
  L 56.31 58.25
  Q 55.93 56.93 55.59 58.25
  L 55.29 59.38
  A 0.70 0.69 5.8 0 1 54.66 59.89
  Z
  M 73.01 59.92
  A 0.35 0.35 0.0 0 1 72.67 59.67
  L 72.20 58.10
  A 0.35 0.35 0.0 0 0 71.53 58.09
  L 71.04 59.66
  A 0.35 0.35 0.0 0 1 70.70 59.91
  L 69.06 59.87
  A 0.35 0.35 0.0 0 0 68.85 60.51
  L 70.20 61.45
  A 0.35 0.35 0.0 0 1 70.32 61.85
  L 69.78 63.40
  A 0.35 0.35 0.0 0 0 70.32 63.79
  L 71.63 62.81
  A 0.35 0.35 0.0 0 1 72.06 62.81
  L 73.36 63.81
  A 0.35 0.35 0.0 0 0 73.90 63.41
  L 73.37 61.86
  A 0.35 0.35 0.0 0 1 73.50 61.46
  L 74.85 60.53
  A 0.35 0.35 0.0 0 0 74.65 59.89
  L 73.01 59.92
  Z
  M 88.93 59.94
  A 0.35 0.35 0.0 0 1 88.58 59.68
  L 88.12 58.09
  A 0.35 0.35 0.0 0 0 87.45 58.09
  L 86.97 59.67
  A 0.35 0.35 0.0 0 1 86.63 59.92
  L 84.97 59.87
  A 0.35 0.35 0.0 0 0 84.76 60.51
  L 86.12 61.45
  A 0.35 0.35 0.0 0 1 86.25 61.86
  L 85.69 63.42
  A 0.35 0.35 0.0 0 0 86.23 63.82
  L 87.55 62.81
  A 0.35 0.35 0.0 0 1 87.97 62.82
  L 89.28 63.83
  A 0.35 0.35 0.0 0 0 89.83 63.44
  L 89.28 61.88
  A 0.35 0.35 0.0 0 1 89.42 61.47
  L 90.79 60.54
  A 0.35 0.35 0.0 0 0 90.59 59.90
  L 88.93 59.94
  Z"
/>
<path fill="#bb133e" d="
  M 96.24 0.00
  L 240.00 0.00
  L 240.00 9.69
  L 96.24 9.70
  L 96.24 0.00
  Z"
/>
<path fill="#ffffff" d="
  M 9.37 5.49
  L 10.98 5.47
  A 0.35 0.35 0.0 0 1 11.19 6.10
  L 9.86 7.02
  A 0.35 0.35 0.0 0 0 9.73 7.43
  L 10.26 8.95
  A 0.35 0.35 0.0 0 1 9.71 9.34
  L 8.43 8.37
  A 0.35 0.35 0.0 0 0 8.01 8.37
  L 6.72 9.34
  A 0.35 0.35 0.0 0 1 6.18 8.94
  L 6.71 7.42
  A 0.35 0.35 0.0 0 0 6.58 7.02
  L 5.25 6.09
  A 0.35 0.35 0.0 0 1 5.46 5.46
  L 7.08 5.49
  A 0.35 0.35 0.0 0 0 7.42 5.24
  L 7.89 3.70
  A 0.35 0.35 0.0 0 1 8.56 3.70
  L 9.03 5.24
  A 0.35 0.35 0.0 0 0 9.37 5.49
  Z"
/>
<path fill="#ffffff" d="
  M 25.25 5.52
  L 26.98 5.45
  A 0.34 0.34 0.0 0 1 27.18 6.07
  L 25.75 7.04
  A 0.34 0.34 0.0 0 0 25.62 7.44
  L 26.21 9.07
  A 0.34 0.34 0.0 0 1 25.68 9.45
  L 24.32 8.38
  A 0.34 0.34 0.0 0 0 23.90 8.38
  L 22.54 9.45
  A 0.34 0.34 0.0 0 1 22.01 9.07
  L 22.60 7.44
  A 0.34 0.34 0.0 0 0 22.47 7.04
  L 21.04 6.07
  A 0.34 0.34 0.0 0 1 21.24 5.45
  L 22.97 5.52
  A 0.34 0.34 0.0 0 0 23.31 5.27
  L 23.78 3.60
  A 0.34 0.34 0.0 0 1 24.44 3.60
  L 24.91 5.27
  A 0.34 0.34 0.0 0 0 25.25 5.52
  Z"
/>
<path fill="#ffffff" d="
  M 41.16 5.54
  L 42.91 5.46
  A 0.34 0.34 0.0 0 1 43.12 6.08
  L 41.65 7.06
  A 0.34 0.34 0.0 0 0 41.52 7.46
  L 42.14 9.10
  A 0.34 0.34 0.0 0 1 41.61 9.49
  L 40.23 8.40
  A 0.34 0.34 0.0 0 0 39.81 8.40
  L 38.44 9.49
  A 0.34 0.34 0.0 0 1 37.91 9.11
  L 38.52 7.46
  A 0.34 0.34 0.0 0 0 38.39 7.06
  L 36.92 6.09
  A 0.34 0.34 0.0 0 1 37.12 5.47
  L 38.88 5.54
  A 0.34 0.34 0.0 0 0 39.22 5.29
  L 39.69 3.60
  A 0.34 0.34 0.0 0 1 40.34 3.60
  L 40.82 5.29
  A 0.34 0.34 0.0 0 0 41.16 5.54
  Z"
/>
<path fill="#ffffff" d="
  M 57.09 5.50
  L 58.78 5.45
  A 0.35 0.35 0.0 0 1 58.98 6.08
  L 57.59 7.04
  A 0.35 0.35 0.0 0 0 57.46 7.45
  L 58.03 9.04
  A 0.35 0.35 0.0 0 1 57.49 9.44
  L 56.15 8.40
  A 0.35 0.35 0.0 0 0 55.72 8.41
  L 54.38 9.44
  A 0.35 0.35 0.0 0 1 53.84 9.05
  L 54.40 7.45
  A 0.35 0.35 0.0 0 0 54.27 7.05
  L 52.87 6.10
  A 0.35 0.35 0.0 0 1 53.08 5.46
  L 54.77 5.50
  A 0.35 0.35 0.0 0 0 55.12 5.25
  L 55.59 3.63
  A 0.35 0.35 0.0 0 1 56.26 3.63
  L 56.74 5.25
  A 0.35 0.35 0.0 0 0 57.09 5.50
  Z"
/>
<path fill="#ffffff" d="
  M 73.01 5.50
  L 74.68 5.46
  A 0.35 0.35 0.0 0 1 74.89 6.10
  L 73.51 7.04
  A 0.35 0.35 0.0 0 0 73.37 7.45
  L 73.92 9.03
  A 0.35 0.35 0.0 0 1 73.38 9.42
  L 72.05 8.39
  A 0.35 0.35 0.0 0 0 71.63 8.39
  L 70.30 9.40
  A 0.35 0.35 0.0 0 1 69.76 9.00
  L 70.32 7.43
  A 0.35 0.35 0.0 0 0 70.19 7.03
  L 68.82 6.07
  A 0.35 0.35 0.0 0 1 69.03 5.43
  L 70.70 5.49
  A 0.35 0.35 0.0 0 0 71.05 5.24
  L 71.53 3.64
  A 0.35 0.35 0.0 0 1 72.20 3.64
  L 72.67 5.25
  A 0.35 0.35 0.0 0 0 73.01 5.50
  Z"
/>
<path fill="#ffffff" d="
  M 88.90 5.53
  L 90.62 5.48
  A 0.34 0.34 0.0 0 1 90.81 6.10
  L 89.39 7.06
  A 0.34 0.34 0.0 0 0 89.26 7.45
  L 89.84 9.07
  A 0.34 0.34 0.0 0 1 89.31 9.46
  L 87.95 8.39
  A 0.34 0.34 0.0 0 0 87.54 8.39
  L 86.17 9.45
  A 0.34 0.34 0.0 0 1 85.65 9.06
  L 86.24 7.44
  A 0.34 0.34 0.0 0 0 86.11 7.05
  L 84.69 6.08
  A 0.34 0.34 0.0 0 1 84.89 5.46
  L 86.61 5.52
  A 0.34 0.34 0.0 0 0 86.95 5.28
  L 87.43 3.62
  A 0.34 0.34 0.0 0 1 88.09 3.63
  L 88.56 5.28
  A 0.34 0.34 0.0 0 0 88.90 5.53
  Z"
/>
<path fill="#ffffff" d="
  M 96.24 9.70
  L 240.00 9.69
  L 240.00 19.35
  L 96.28 19.39
  L 96.24 9.70
  Z"
/>
<path fill="#ffffff" d="
  M 17.32 12.31
  L 18.98 12.26
  A 0.35 0.35 0.0 0 1 19.19 12.89
  L 17.83 13.85
  A 0.35 0.35 0.0 0 0 17.70 14.25
  L 18.26 15.82
  A 0.35 0.35 0.0 0 1 17.72 16.22
  L 16.39 15.21
  A 0.35 0.35 0.0 0 0 15.97 15.21
  L 14.65 16.23
  A 0.35 0.35 0.0 0 1 14.10 15.84
  L 14.65 14.27
  A 0.35 0.35 0.0 0 0 14.52 13.86
  L 13.14 12.92
  A 0.35 0.35 0.0 0 1 13.34 12.29
  L 15.01 12.32
  A 0.35 0.35 0.0 0 0 15.35 12.07
  L 15.82 10.47
  A 0.35 0.35 0.0 0 1 16.49 10.46
  L 16.97 12.06
  A 0.35 0.35 0.0 0 0 17.32 12.31
  Z"
/>
<path fill="#ffffff" d="
  M 31.41 11.75
  L 31.77 10.53
  Q 32.08 9.50 32.39 10.53
  L 32.76 11.74
  Q 32.95 12.36 33.60 12.29
  Q 34.22 12.22 34.81 12.30
  Q 35.83 12.44 34.92 12.91
  Q 33.11 13.85 34.04 15.80
  Q 34.58 16.94 33.60 16.15
  L 32.50 15.27
  A 0.70 0.70 0.0 0 0 31.54 15.34
  Q 31.06 15.87 30.47 16.26
  Q 29.81 16.70 30.04 15.94
  L 30.49 14.50
  A 0.84 0.83 26.2 0 0 30.17 13.57
  L 29.12 12.86
  Q 28.41 12.38 29.27 12.38
  L 30.56 12.38
  A 0.89 0.89 0.0 0 0 31.41 11.75
  Z"
/>
<path fill="#ffffff" d="
  M 47.34 11.69
  L 47.66 10.50
  Q 47.96 9.42 48.30 10.49
  L 48.65 11.59
  Q 48.90 12.42 49.76 12.30
  Q 50.25 12.23 50.72 12.29
  Q 51.75 12.44 50.83 12.92
  Q 49.09 13.84 49.90 15.67
  Q 50.32 16.62 49.44 16.08
  Q 48.97 15.78 48.56 15.37
  Q 48.05 14.87 47.51 15.33
  Q 46.99 15.77 46.38 16.17
  Q 45.48 16.75 46.00 15.81
  Q 47.17 13.70 44.99 12.94
  A 0.34 0.34 0.0 0 1 45.19 12.29
  Q 45.89 12.49 46.56 12.38
  A 0.96 0.95 -86.1 0 0 47.34 11.69
  Z"
/>
<path fill="#ffffff" d="
  M 65.06 12.31
  L 66.74 12.26
  A 0.35 0.35 0.0 0 1 66.95 12.90
  L 65.57 13.85
  A 0.35 0.35 0.0 0 0 65.44 14.26
  L 66.00 15.84
  A 0.35 0.35 0.0 0 1 65.46 16.24
  L 64.13 15.21
  A 0.35 0.35 0.0 0 0 63.70 15.21
  L 62.37 16.24
  A 0.35 0.35 0.0 0 1 61.82 15.85
  L 62.39 14.26
  A 0.35 0.35 0.0 0 0 62.25 13.86
  L 60.86 12.91
  A 0.35 0.35 0.0 0 1 61.07 12.27
  L 62.75 12.31
  A 0.35 0.35 0.0 0 0 63.10 12.06
  L 63.57 10.45
  A 0.35 0.35 0.0 0 1 64.24 10.45
  L 64.72 12.06
  A 0.35 0.35 0.0 0 0 65.06 12.31
  Z"
/>
<path fill="#ffffff" d="
  M 79.20 11.57
  L 79.48 10.53
  Q 79.66 9.84 80.05 10.44
  Q 80.44 11.05 80.53 11.75
  A 0.66 0.66 0.0 0 0 81.31 12.31
  Q 82.01 12.18 82.68 12.34
  Q 83.56 12.54 82.73 12.91
  Q 80.75 13.79 81.80 15.70
  Q 82.18 16.39 81.43 16.19
  Q 80.85 16.03 80.57 15.52
  A 0.85 0.84 -39.6 0 0 79.17 15.39
  Q 78.74 15.93 78.16 16.22
  Q 77.20 16.71 77.77 15.79
  Q 78.99 13.81 76.95 12.92
  Q 76.04 12.53 77.02 12.38
  Q 77.64 12.28 78.28 12.28
  Q 79.02 12.28 79.20 11.57
  Z"
/>
<path fill="#ffffff" d="
  M 25.68 19.10
  Q 26.27 19.07 26.88 19.17
  Q 28.00 19.35 26.96 19.81
  Q 25.18 20.58 26.04 22.33
  Q 26.50 23.28 25.56 22.82
  Q 25.08 22.59 24.69 22.20
  Q 24.15 21.67 23.57 22.15
  L 22.63 22.93
  Q 21.83 23.59 22.13 22.59
  L 22.57 21.16
  Q 22.77 20.50 22.13 20.22
  L 21.20 19.82
  Q 20.24 19.41 21.27 19.29
  L 22.75 19.12
  A 0.86 0.85 -84.8 0 0 23.48 18.50
  L 23.82 17.27
  Q 24.07 16.37 24.38 17.25
  L 24.85 18.54
  Q 25.06 19.13 25.68 19.10
  Z"
/>
<path fill="#ffffff" d="
  M 39.39 18.48
  L 39.71 17.26
  Q 39.98 16.22 40.30 17.24
  L 40.70 18.48
  Q 40.89 19.09 41.53 19.09
  Q 42.26 19.09 42.99 19.21
  Q 43.88 19.35 43.05 19.69
  Q 41.05 20.51 41.96 22.45
  Q 42.44 23.50 41.49 22.84
  L 40.52 22.17
  A 0.88 0.88 0.0 0 0 39.42 22.25
  Q 39.04 22.58 38.61 22.81
  Q 37.65 23.29 38.14 22.34
  Q 39.11 20.45 37.19 19.84
  Q 36.04 19.46 37.24 19.30
  L 38.71 19.09
  A 0.81 0.80 -86.8 0 0 39.39 18.48
  Z"
/>
<path fill="#ffffff" d="
  M 55.38 18.35
  Q 55.44 17.76 55.66 17.24
  Q 56.08 16.25 56.24 17.31
  Q 56.59 19.66 58.76 19.10
  Q 59.14 19.00 59.16 19.39
  Q 59.16 19.53 59.12 19.67
  Q 59.11 19.72 59.06 19.74
  Q 56.83 20.39 57.90 22.50
  Q 58.26 23.22 57.53 22.88
  Q 56.97 22.61 56.49 22.21
  Q 55.99 21.79 55.45 22.16
  L 54.49 22.83
  Q 53.70 23.37 54.00 22.46
  L 54.37 21.35
  Q 54.55 20.80 54.10 20.42
  Q 53.72 20.11 53.24 19.93
  Q 52.00 19.48 53.30 19.28
  L 54.68 19.08
  Q 55.31 18.99 55.38 18.35
  Z"
/>
<path fill="#ffffff" d="
  M 69.82 20.25
  L 68.98 19.87
  Q 67.94 19.41 69.07 19.27
  L 70.55 19.08
  Q 71.12 19.01 71.26 18.45
  L 71.56 17.23
  Q 71.74 16.50 72.09 17.16
  Q 72.41 17.77 72.54 18.51
  Q 72.66 19.18 73.34 19.17
  L 74.60 19.16
  Q 75.95 19.14 74.77 19.79
  L 73.85 20.30
  A 0.81 0.80 68.3 0 0 73.46 21.22
  L 73.83 22.52
  Q 74.19 23.79 73.28 22.83
  Q 71.81 21.27 70.25 22.96
  Q 69.67 23.59 69.88 22.76
  Q 70.10 21.92 70.24 21.02
  Q 70.33 20.47 69.82 20.25
  Z"
/>
<path fill="#ffffff" d="
  M 88.93 19.10
  L 90.60 19.05
  A 0.35 0.35 0.0 0 1 90.81 19.69
  L 89.44 20.64
  A 0.35 0.35 0.0 0 0 89.31 21.04
  L 89.87 22.61
  A 0.35 0.35 0.0 0 1 89.33 23.01
  L 88.00 22.00
  A 0.35 0.35 0.0 0 0 87.57 22.00
  L 86.25 23.02
  A 0.35 0.35 0.0 0 1 85.71 22.63
  L 86.26 21.05
  A 0.35 0.35 0.0 0 0 86.12 20.65
  L 84.75 19.71
  A 0.35 0.35 0.0 0 1 84.96 19.07
  L 86.62 19.11
  A 0.35 0.35 0.0 0 0 86.96 18.85
  L 87.43 17.26
  A 0.35 0.35 0.0 0 1 88.10 17.25
  L 88.59 18.85
  A 0.35 0.35 0.0 0 0 88.93 19.10
  Z"
/>
<path fill="#ffffff" d="
  M 9.71 19.12
  L 10.98 19.12
  Q 11.90 19.12 11.20 19.71
  Q 10.82 20.04 10.38 20.24
  A 1.01 1.00 -22.5 0 0 9.85 21.51
  L 10.20 22.47
  Q 10.56 23.46 9.69 22.86
  L 8.62 22.12
  Q 8.10 21.77 7.64 22.19
  L 6.77 22.98
  Q 6.04 23.65 6.20 22.67
  Q 6.32 21.93 6.65 21.30
  A 0.74 0.73 -66.0 0 0 6.27 20.29
  Q 5.70 20.06 5.23 19.70
  Q 4.51 19.17 5.40 19.27
  Q 7.56 19.50 7.90 17.57
  Q 8.14 16.21 8.59 17.51
  L 8.96 18.59
  Q 9.14 19.13 9.71 19.12
  Z"
/>
<path fill="#bb133e" d="
  M 240.00 19.35
  L 240.00 29.03
  L 96.14 29.04
  L 96.09 20.39
  A 0.58 0.57 68.6 0 1 96.27 19.97
  Q 96.58 19.69 96.28 19.39
  L 240.00 19.35
  Z"
/>
<path fill="#ffffff" d="
  M 30.13 27.18
  L 29.19 26.63
  Q 28.26 26.09 29.33 26.02
  L 30.71 25.93
  Q 31.37 25.89 31.46 25.23
  Q 31.55 24.57 31.83 23.99
  Q 32.19 23.24 32.41 24.04
  L 32.75 25.31
  Q 32.92 25.92 33.55 25.94
  L 34.73 25.99
  Q 35.95 26.04 34.87 26.62
  Q 33.49 27.36 33.87 28.72
  Q 34.31 30.29 33.04 29.27
  Q 32.00 28.45 30.91 29.41
  Q 29.81 30.38 30.22 28.97
  L 30.48 28.06
  Q 30.65 27.48 30.13 27.18
  Z"
/>
<path fill="#ffffff" d="
  M 61.72 27.03
  Q 61.20 26.85 60.86 26.44
  Q 60.43 25.93 61.10 25.98
  Q 61.96 26.05 62.70 25.86
  Q 63.18 25.73 63.29 25.26
  L 63.59 23.95
  Q 63.84 22.88 64.16 23.92
  L 64.61 25.36
  Q 64.79 25.92 65.38 25.94
  L 66.68 25.97
  Q 67.61 26.00 66.85 26.53
  L 65.81 27.27
  Q 65.43 27.54 65.54 28.00
  Q 65.69 28.59 65.73 29.22
  Q 65.78 30.16 65.12 29.49
  Q 64.78 29.14 64.32 28.94
  Q 63.77 28.70 63.30 29.07
  Q 62.89 29.40 62.41 29.61
  Q 61.49 30.01 61.96 29.11
  Q 62.25 28.55 62.31 27.95
  A 0.87 0.86 12.4 0 0 61.72 27.03
  Z"
/>
<path fill="#ffffff" d="
  M 80.95 25.93
  L 82.68 25.86
  A 0.34 0.34 0.0 0 1 82.88 26.48
  L 81.45 27.45
  A 0.34 0.34 0.0 0 0 81.32 27.85
  L 81.91 29.48
  A 0.34 0.34 0.0 0 1 81.38 29.86
  L 80.02 28.79
  A 0.34 0.34 0.0 0 0 79.60 28.79
  L 78.24 29.86
  A 0.34 0.34 0.0 0 1 77.71 29.48
  L 78.30 27.85
  A 0.34 0.34 0.0 0 0 78.17 27.45
  L 76.74 26.48
  A 0.34 0.34 0.0 0 1 76.94 25.86
  L 78.67 25.93
  A 0.34 0.34 0.0 0 0 79.01 25.68
  L 79.48 24.01
  A 0.34 0.34 0.0 0 1 80.14 24.01
  L 80.61 25.68
  A 0.34 0.34 0.0 0 0 80.95 25.93
  Z"
/>
<path fill="#ffffff" d="
  M 15.61 25.02
  Q 15.60 24.51 15.87 24.08
  Q 16.41 23.20 16.52 24.23
  Q 16.76 26.46 19.03 25.96
  Q 19.79 25.79 19.30 26.39
  Q 18.85 26.94 18.14 27.25
  A 0.68 0.67 69.6 0 0 17.76 28.09
  L 18.13 29.16
  Q 18.43 30.00 17.65 29.57
  L 16.62 29.02
  Q 16.18 28.78 15.71 28.98
  Q 15.17 29.22 14.73 29.66
  Q 14.54 29.85 14.29 29.74
  Q 14.24 29.71 14.21 29.67
  Q 14.06 29.48 14.17 29.26
  Q 14.56 28.52 14.57 27.74
  Q 14.57 27.29 14.16 27.11
  Q 13.62 26.88 13.19 26.47
  Q 12.63 25.94 13.40 26.00
  Q 14.24 26.07 14.97 25.86
  Q 15.61 25.69 15.61 25.02
  Z"
/>
<path fill="#ffffff" d="
  M 47.23 25.66
  L 47.71 23.92
  A 0.28 0.28 0.0 0 1 48.25 23.90
  L 48.84 25.68
  A 0.28 0.28 0.0 0 0 49.09 25.87
  L 50.95 25.97
  A 0.28 0.28 0.0 0 1 51.09 26.48
  L 49.71 27.46
  A 0.28 0.28 0.0 0 0 49.59 27.74
  L 49.91 29.35
  A 0.28 0.28 0.0 0 1 49.49 29.65
  L 48.15 28.82
  A 0.28 0.28 0.0 0 0 47.85 28.82
  L 46.41 29.70
  A 0.28 0.28 0.0 0 1 45.99 29.38
  L 46.49 27.82
  A 0.28 0.28 0.0 0 0 46.38 27.50
  L 44.93 26.51
  A 0.28 0.28 0.0 0 1 45.07 26.00
  L 46.98 25.86
  A 0.28 0.28 0.0 0 0 47.23 25.66
  Z"
/>
<path fill="#ffffff" d="
  M 240.00 29.03
  L 240.00 38.77
  L 96.15 38.76
  L 96.14 29.04
  L 240.00 29.03
  Z"
/>
<path fill="#ffffff" d="
  M 9.37 32.72
  L 10.94 32.71
  A 0.35 0.35 0.0 0 1 11.14 33.34
  L 9.87 34.26
  A 0.35 0.35 0.0 0 0 9.75 34.65
  L 10.24 36.14
  A 0.35 0.35 0.0 0 1 9.70 36.53
  L 8.44 35.60
  A 0.35 0.35 0.0 0 0 8.02 35.60
  L 6.76 36.53
  A 0.35 0.35 0.0 0 1 6.22 36.14
  L 6.71 34.65
  A 0.35 0.35 0.0 0 0 6.59 34.26
  L 5.32 33.34
  A 0.35 0.35 0.0 0 1 5.52 32.71
  L 7.09 32.72
  A 0.35 0.35 0.0 0 0 7.42 32.47
  L 7.90 30.98
  A 0.35 0.35 0.0 0 1 8.56 30.98
  L 9.04 32.47
  A 0.35 0.35 0.0 0 0 9.37 32.72
  Z"
/>
<path fill="#ffffff" d="
  M 23.44 32.03
  Q 23.60 31.42 23.92 30.88
  Q 24.24 30.35 24.44 30.93
  L 24.88 32.22
  Q 25.09 32.81 25.70 32.76
  Q 26.25 32.72 26.83 32.75
  Q 27.94 32.82 26.96 33.36
  Q 25.17 34.32 26.07 36.04
  Q 26.50 36.85 25.67 36.45
  Q 24.98 36.12 24.35 35.70
  Q 23.85 35.38 23.47 35.84
  Q 23.09 36.31 22.59 36.58
  Q 21.99 36.90 22.16 36.24
  L 22.49 34.91
  Q 22.63 34.37 22.19 34.02
  L 21.34 33.34
  Q 20.58 32.74 21.55 32.74
  L 22.55 32.73
  Q 23.27 32.73 23.44 32.03
  Z"
/>
<path fill="#ffffff" d="
  M 41.76 35.41
  Q 41.94 35.72 41.99 36.07
  Q 42.11 36.91 41.40 36.43
  L 40.47 35.78
  Q 39.83 35.33 39.32 35.92
  Q 39.03 36.26 38.67 36.48
  Q 37.66 37.08 38.15 36.01
  Q 38.95 34.28 37.35 33.36
  Q 36.33 32.77 37.51 32.75
  L 38.52 32.73
  Q 39.14 32.72 39.30 32.13
  Q 39.49 31.47 39.84 30.92
  Q 40.31 30.18 40.41 31.06
  Q 40.63 33.09 42.61 32.75
  Q 43.61 32.57 42.94 33.33
  Q 42.64 33.67 42.24 33.87
  A 1.12 1.12 0.0 0 0 41.76 35.41
  Z"
/>
<path fill="#ffffff" d="
  M 57.51 34.64
  L 57.96 36.23
  A 0.31 0.31 0.0 0 1 57.49 36.56
  L 56.10 35.57
  A 0.31 0.31 0.0 0 0 55.73 35.58
  L 54.40 36.62
  A 0.31 0.31 0.0 0 1 53.91 36.29
  L 54.40 34.51
  A 0.31 0.31 0.0 0 0 54.28 34.17
  L 53.02 33.26
  A 0.31 0.31 0.0 0 1 53.20 32.70
  L 54.79 32.69
  A 0.31 0.31 0.0 0 0 55.08 32.48
  L 55.68 30.80
  A 0.31 0.31 0.0 0 1 56.27 30.82
  L 56.78 32.49
  A 0.31 0.31 0.0 0 0 57.08 32.71
  L 58.81 32.70
  A 0.31 0.31 0.0 0 1 59.00 33.26
  L 57.62 34.31
  A 0.31 0.31 0.0 0 0 57.51 34.64
  Z"
/>
<path fill="#ffffff" d="
  M 73.04 32.71
  L 74.61 32.71
  A 0.35 0.35 0.0 0 1 74.82 33.35
  L 73.54 34.27
  A 0.35 0.35 0.0 0 0 73.41 34.66
  L 73.89 36.16
  A 0.35 0.35 0.0 0 1 73.35 36.55
  L 72.08 35.62
  A 0.35 0.35 0.0 0 0 71.67 35.62
  L 70.39 36.54
  A 0.35 0.35 0.0 0 1 69.85 36.15
  L 70.34 34.65
  A 0.35 0.35 0.0 0 0 70.22 34.26
  L 68.95 33.33
  A 0.35 0.35 0.0 0 1 69.16 32.69
  L 70.73 32.70
  A 0.35 0.35 0.0 0 0 71.06 32.46
  L 71.56 30.96
  A 0.35 0.35 0.0 0 1 72.22 30.96
  L 72.71 32.46
  A 0.35 0.35 0.0 0 0 73.04 32.71
  Z"
/>
<path fill="#ffffff" d="
  M 88.94 32.72
  L 90.60 32.69
  A 0.35 0.35 0.0 0 1 90.81 33.33
  L 89.43 34.26
  A 0.35 0.35 0.0 0 0 89.29 34.67
  L 89.84 36.24
  A 0.35 0.35 0.0 0 1 89.30 36.63
  L 87.98 35.61
  A 0.35 0.35 0.0 0 0 87.56 35.60
  L 86.23 36.61
  A 0.35 0.35 0.0 0 1 85.69 36.21
  L 86.26 34.65
  A 0.35 0.35 0.0 0 0 86.13 34.24
  L 84.76 33.30
  A 0.35 0.35 0.0 0 1 84.97 32.66
  L 86.64 32.71
  A 0.35 0.35 0.0 0 0 86.98 32.46
  L 87.46 30.87
  A 0.35 0.35 0.0 0 1 88.13 30.87
  L 88.59 32.47
  A 0.35 0.35 0.0 0 0 88.94 32.72
  Z"
/>
<path fill="#ffffff" d="
  M 14.18 40.77
  L 13.15 40.03
  Q 12.49 39.56 13.30 39.55
  L 14.71 39.53
  Q 15.24 39.52 15.42 39.03
  L 15.91 37.72
  Q 16.23 36.85 16.50 37.73
  L 16.85 38.88
  Q 17.06 39.53 17.74 39.52
  L 18.75 39.51
  Q 20.01 39.50 18.93 40.15
  Q 17.48 41.02 17.94 42.37
  Q 18.58 44.23 17.13 42.90
  Q 15.86 41.74 14.93 43.20
  Q 14.82 43.37 14.61 43.41
  Q 14.03 43.53 14.18 42.96
  L 14.52 41.72
  Q 14.67 41.13 14.18 40.77
  Z"
/>
<path fill="#ffffff" d="
  M 31.37 38.97
  Q 31.54 38.31 31.85 37.72
  Q 32.31 36.86 32.42 37.83
  Q 32.65 39.85 34.64 39.52
  Q 35.67 39.35 34.95 40.11
  Q 34.55 40.52 34.07 40.84
  A 0.80 0.79 66.2 0 0 33.74 41.70
  L 34.05 42.97
  Q 34.29 43.94 33.51 43.32
  L 32.60 42.60
  Q 32.06 42.17 31.52 42.61
  Q 31.12 42.95 30.65 43.24
  Q 29.69 43.83 30.17 42.80
  Q 31.02 40.99 29.18 40.10
  Q 28.39 39.72 29.26 39.59
  Q 29.97 39.48 30.67 39.50
  Q 31.23 39.52 31.37 38.97
  Z"
/>
<path fill="#ffffff" d="
  M 49.33 39.48
  L 50.79 39.51
  Q 51.58 39.53 50.97 40.03
  L 49.88 40.93
  A 0.70 0.69 -27.8 0 0 49.65 41.65
  L 49.98 42.93
  Q 50.19 43.70 49.48 43.35
  Q 48.97 43.09 48.60 42.67
  Q 48.10 42.10 47.53 42.60
  Q 47.04 43.03 46.47 43.28
  Q 45.62 43.66 46.04 42.83
  Q 46.95 41.06 45.13 40.10
  Q 44.17 39.59 45.25 39.56
  L 46.57 39.51
  A 0.80 0.79 -82.2 0 0 47.30 38.95
  L 47.63 37.86
  Q 47.91 36.93 48.35 37.80
  Q 48.59 38.27 48.63 38.82
  Q 48.68 39.46 49.33 39.48
  Z"
/>
<path fill="#ffffff" d="
  M 65.30 39.49
  L 66.50 39.50
  Q 67.74 39.50 66.67 40.14
  Q 65.02 41.14 65.83 42.76
  Q 65.94 42.97 65.85 43.20
  Q 65.76 43.41 65.59 43.43
  Q 65.35 43.45 65.18 43.28
  Q 64.82 42.92 64.45 42.57
  A 0.76 0.75 -45.3 0 0 63.41 42.58
  Q 62.99 42.99 62.47 43.26
  Q 61.46 43.80 61.98 42.78
  Q 62.81 41.12 61.14 40.14
  Q 60.04 39.49 61.31 39.60
  Q 63.36 39.76 63.57 37.88
  Q 63.69 36.81 64.23 37.75
  Q 64.50 38.23 64.54 38.78
  Q 64.59 39.49 65.30 39.49
  Z"
/>
<path fill="#ffffff" d="
  M 80.97 39.50
  L 82.57 39.49
  A 0.35 0.35 0.0 0 1 82.78 40.13
  L 81.47 41.06
  A 0.35 0.35 0.0 0 0 81.34 41.45
  L 81.84 42.97
  A 0.35 0.35 0.0 0 1 81.30 43.36
  L 80.01 42.41
  A 0.35 0.35 0.0 0 0 79.60 42.41
  L 78.30 43.35
  A 0.35 0.35 0.0 0 1 77.76 42.96
  L 78.27 41.44
  A 0.35 0.35 0.0 0 0 78.15 41.05
  L 76.85 40.11
  A 0.35 0.35 0.0 0 1 77.06 39.47
  L 78.66 39.49
  A 0.35 0.35 0.0 0 0 78.99 39.24
  L 79.49 37.72
  A 0.35 0.35 0.0 0 1 80.15 37.72
  L 80.64 39.25
  A 0.35 0.35 0.0 0 0 80.97 39.50
  Z"
/>
<path fill="#bb133e" d="
  M 96.15 38.76
  L 240.00 38.77
  L 240.00 48.48
  L 96.18 48.47
  L 96.15 38.76
  Z"
/>
<path fill="#ffffff" d="
  M 39.41 45.60
  L 39.79 44.50
  Q 40.14 43.50 40.31 44.55
  Q 40.64 46.62 42.71 46.36
  Q 43.80 46.22 42.88 46.82
  Q 41.25 47.89 41.89 49.63
  Q 42.19 50.44 41.40 50.08
  Q 40.93 49.87 40.64 49.44
  Q 40.28 48.94 39.75 49.24
  Q 39.27 49.50 38.94 49.94
  Q 38.71 50.24 38.33 50.22
  Q 38.28 50.22 38.24 50.18
  Q 37.98 49.95 38.13 49.63
  Q 39.03 47.83 37.19 46.86
  Q 36.21 46.35 37.31 46.43
  Q 37.95 46.48 38.58 46.33
  Q 39.20 46.19 39.41 45.60
  Z"
/>
<path fill="#ffffff" d="
  M 55.50 49.32
  L 54.56 50.08
  Q 53.82 50.67 54.03 49.75
  L 54.35 48.39
  A 0.84 0.82 -67.4 0 0 54.00 47.52
  L 53.28 47.05
  Q 52.22 46.36 53.48 46.44
  Q 55.47 46.58 55.67 44.49
  Q 55.74 43.74 56.14 44.38
  Q 56.49 44.94 56.63 45.59
  Q 56.77 46.29 57.48 46.28
  L 58.71 46.28
  Q 59.60 46.27 58.90 46.83
  L 57.86 47.67
  A 0.80 0.79 -30.1 0 0 57.61 48.59
  Q 57.86 49.19 57.78 49.81
  Q 57.67 50.67 57.13 49.99
  Q 56.77 49.53 56.29 49.26
  A 0.71 0.70 40.2 0 0 55.50 49.32
  Z"
/>
<path fill="#ffffff" d="
  M 88.91 46.31
  L 90.58 46.27
  A 0.35 0.35 0.0 0 1 90.79 46.91
  L 89.41 47.86
  A 0.35 0.35 0.0 0 0 89.28 48.26
  L 89.83 49.84
  A 0.35 0.35 0.0 0 1 89.29 50.24
  L 87.96 49.22
  A 0.35 0.35 0.0 0 0 87.54 49.22
  L 86.20 50.23
  A 0.35 0.35 0.0 0 1 85.66 49.84
  L 86.22 48.26
  A 0.35 0.35 0.0 0 0 86.09 47.86
  L 84.71 46.90
  A 0.35 0.35 0.0 0 1 84.92 46.26
  L 86.59 46.30
  A 0.35 0.35 0.0 0 0 86.94 46.05
  L 87.42 44.45
  A 0.35 0.35 0.0 0 1 88.09 44.45
  L 88.57 46.06
  A 0.35 0.35 0.0 0 0 88.91 46.31
  Z"
/>
<path fill="#ffffff" d="
  M 9.54 46.26
  L 10.94 46.27
  Q 11.77 46.27 11.13 46.80
  L 10.15 47.62
  A 0.93 0.91 61.1 0 0 9.87 48.63
  Q 10.09 49.26 10.17 49.93
  Q 10.26 50.76 9.73 50.12
  Q 8.27 48.35 6.78 50.18
  Q 6.30 50.77 6.19 50.02
  Q 6.11 49.50 6.44 49.05
  A 1.13 1.12 29.5 0 0 5.96 47.33
  Q 5.63 47.19 5.35 46.96
  Q 4.46 46.21 5.61 46.40
  Q 7.63 46.72 7.91 44.63
  Q 8.00 43.91 8.45 44.48
  Q 8.82 44.94 8.83 45.55
  Q 8.84 46.26 9.54 46.26
  Z"
/>
<path fill="#ffffff" d="
  M 25.80 46.27
  L 26.72 46.26
  Q 27.70 46.26 26.95 46.90
  L 26.10 47.62
  Q 25.64 48.02 25.83 48.60
  Q 26.05 49.27 25.98 49.92
  Q 25.91 50.58 25.51 50.05
  Q 24.22 48.37 22.83 50.11
  Q 22.60 50.39 22.27 50.24
  Q 22.23 50.22 22.20 50.18
  Q 22.03 49.94 22.17 49.68
  Q 23.18 47.76 21.30 46.95
  Q 20.58 46.65 21.34 46.50
  Q 21.97 46.38 22.63 46.37
  Q 23.23 46.35 23.43 45.79
  L 23.82 44.67
  Q 24.15 43.74 24.47 44.67
  L 24.77 45.54
  Q 25.02 46.27 25.80 46.27
  Z"
/>
<path fill="#ffffff" d="
  M 71.16 45.82
  L 71.59 44.50
  A 0.31 0.31 0.0 0 1 72.18 44.50
  L 72.58 45.75
  A 0.84 0.84 0.0 0 0 73.58 46.31
  Q 74.26 46.14 74.86 46.39
  Q 75.43 46.63 74.86 46.88
  Q 73.02 47.69 73.71 49.54
  Q 74.04 50.39 73.17 50.12
  Q 72.85 50.02 72.86 49.63
  A 0.46 0.45 -89.4 0 0 72.42 49.17
  Q 71.48 49.13 70.51 49.97
  Q 69.36 50.96 69.99 49.58
  Q 70.83 47.74 69.12 47.05
  Q 68.84 46.94 68.71 46.66
  Q 68.64 46.51 68.78 46.40
  Q 68.83 46.36 69.00 46.36
  L 70.44 46.35
  A 0.76 0.75 -81.0 0 0 71.16 45.82
  Z"
/>
<path fill="#ffffff" d="
  M 96.18 48.47
  L 240.00 48.48
  L 240.00 58.18
  L 96.19 58.18
  L 96.18 48.47
  Z"
/>
<path fill="#ffffff" d="
  M 31.43 52.54
  L 31.79 51.27
  Q 32.08 50.23 32.38 51.26
  L 32.74 52.50
  Q 32.92 53.10 33.54 53.10
  Q 34.24 53.10 34.92 53.17
  Q 36.00 53.29 35.05 53.81
  L 34.09 54.34
  Q 33.54 54.64 33.70 55.25
  L 34.02 56.47
  Q 34.30 57.52 33.45 56.85
  L 32.59 56.17
  A 0.87 0.86 -49.8 0 0 31.42 56.27
  Q 31.12 56.60 30.75 56.81
  Q 29.66 57.41 30.20 56.29
  Q 31.08 54.46 29.21 53.83
  Q 28.21 53.50 29.25 53.30
  Q 29.95 53.16 30.65 53.14
  A 0.84 0.83 7.1 0 0 31.43 52.54
  Z"
/>
<path fill="#ffffff" d="
  M 63.30 52.44
  L 63.59 51.28
  Q 63.79 50.44 64.16 51.22
  Q 64.45 51.81 64.53 52.46
  A 0.74 0.72 7.5 0 0 64.97 53.02
  Q 65.70 53.31 66.50 53.16
  A 0.35 0.31 -48.6 0 1 66.58 53.15
  Q 67.28 53.14 67.14 53.56
  Q 67.08 53.74 66.89 53.80
  Q 66.07 54.04 65.63 54.71
  Q 65.32 55.20 65.61 55.71
  Q 65.90 56.20 65.86 56.75
  Q 65.81 57.49 65.34 56.92
  Q 64.01 55.28 62.52 56.83
  Q 61.72 57.65 61.93 56.53
  Q 62.06 55.83 62.37 55.16
  A 0.40 0.39 36.1 0 0 62.30 54.74
  Q 61.82 54.21 61.15 53.89
  Q 60.17 53.43 61.24 53.28
  L 62.56 53.11
  Q 63.16 53.03 63.30 52.44
  Z"
/>
<path fill="#ffffff" d="
  M 81.39 53.14
  Q 82.01 53.10 82.63 53.16
  Q 83.66 53.26 82.76 53.77
  L 81.83 54.30
  A 0.85 0.84 65.3 0 0 81.46 55.33
  Q 81.72 56.02 81.75 56.72
  Q 81.78 57.48 81.24 56.95
  L 80.42 56.17
  A 0.83 0.83 0.0 0 0 79.24 56.19
  Q 78.75 56.70 78.16 57.06
  Q 77.54 57.45 77.77 56.76
  L 78.25 55.30
  Q 78.51 54.50 77.71 54.24
  Q 77.26 54.09 76.86 53.84
  Q 76.10 53.36 76.99 53.26
  L 78.64 53.09
  Q 79.04 53.04 79.14 52.66
  L 79.54 51.22
  Q 79.71 50.61 80.01 51.16
  Q 80.33 51.75 80.45 52.41
  Q 80.59 53.19 81.39 53.14
  Z"
/>
<path fill="#ffffff" d="
  M 17.75 53.12
  L 19.03 53.12
  Q 20.13 53.12 19.21 53.72
  L 18.16 54.39
  Q 17.63 54.73 17.83 55.33
  Q 18.04 55.99 18.10 56.75
  Q 18.15 57.54 17.64 56.93
  Q 16.19 55.22 14.79 56.85
  Q 14.10 57.64 14.20 56.60
  Q 14.26 56.00 14.55 55.43
  A 0.83 0.83 0.0 0 0 14.35 54.43
  Q 13.90 54.05 13.32 53.84
  Q 12.34 53.48 13.37 53.29
  Q 14.01 53.18 14.70 53.15
  Q 15.33 53.12 15.52 52.51
  L 15.84 51.45
  Q 16.13 50.51 16.48 51.43
  L 16.89 52.53
  Q 17.11 53.13 17.75 53.12
  Z"
/>
<path fill="#ffffff" d="
  M 47.37 52.44
  Q 47.41 51.72 47.82 51.20
  Q 48.25 50.67 48.32 51.35
  Q 48.55 53.66 50.77 53.08
  Q 51.16 52.98 51.21 53.38
  Q 51.23 53.52 51.17 53.66
  Q 51.14 53.73 51.07 53.75
  Q 48.90 54.43 49.92 56.40
  Q 50.32 57.17 49.49 56.89
  Q 49.02 56.73 48.71 56.32
  Q 48.24 55.70 47.59 56.14
  L 46.37 56.97
  A 0.32 0.32 0.0 0 1 45.93 56.53
  Q 47.30 54.49 44.99 53.84
  Q 44.81 53.79 44.80 53.62
  Q 44.79 53.34 45.07 53.31
  L 46.74 53.12
  A 0.72 0.71 88.1 0 0 47.37 52.44
  Z"
/>
<path fill="#ffffff" d="
  M 7.62 59.21
  Q 7.61 58.55 7.98 58.08
  Q 8.51 57.39 8.60 58.26
  Q 8.83 60.50 11.07 59.96
  Q 11.99 59.74 11.32 60.40
  Q 10.77 60.94 10.14 61.33
  Q 9.63 61.66 9.84 62.23
  L 10.16 63.11
  Q 10.49 63.99 9.66 63.55
  L 8.76 63.08
  A 1.23 1.23 0.0 0 0 7.46 63.17
  L 6.75 63.68
  Q 5.89 64.29 6.23 63.29
  L 6.60 62.18
  Q 6.82 61.51 6.22 61.14
  L 5.29 60.57
  Q 4.39 60.02 5.45 59.99
  L 6.90 59.95
  A 0.74 0.74 0.0 0 0 7.62 59.21
  Z"
/>
<path fill="#ffffff" d="
  M 23.51 59.29
  Q 23.54 58.67 23.85 58.13
  Q 24.38 57.23 24.50 58.27
  Q 24.76 60.45 27.02 59.97
  Q 27.83 59.80 27.28 60.42
  Q 26.87 60.88 26.30 61.12
  A 0.90 0.89 76.5 0 0 25.77 62.00
  Q 25.81 62.63 26.08 63.22
  Q 26.45 64.04 25.66 63.62
  L 24.49 63.00
  A 0.90 0.88 40.8 0 0 23.54 63.06
  L 23.06 63.42
  Q 21.73 64.40 22.33 62.86
  Q 22.93 61.33 21.35 60.67
  Q 20.01 60.10 21.47 60.02
  L 22.88 59.93
  Q 23.49 59.89 23.51 59.29
  Z"
/>
<path fill="#ffffff" d="
  M 41.44 59.94
  L 42.74 60.00
  Q 43.75 60.05 42.92 60.64
  L 42.04 61.26
  Q 41.52 61.63 41.73 62.23
  Q 41.91 62.75 41.92 63.31
  Q 41.92 64.10 41.35 63.55
  Q 40.09 62.34 38.95 63.42
  Q 38.63 63.73 38.19 63.66
  Q 38.14 63.65 38.09 63.61
  Q 37.92 63.43 38.04 63.22
  Q 39.19 61.31 37.07 60.61
  Q 36.37 60.38 37.06 60.12
  Q 37.72 59.87 38.46 59.96
  Q 39.15 60.04 39.36 59.37
  L 39.77 58.07
  Q 40.07 57.12 40.35 58.07
  L 40.74 59.38
  Q 40.89 59.91 41.44 59.94
  Z"
/>
<path fill="#ffffff" d="
  M 55.29 59.38
  L 55.59 58.25
  Q 55.93 56.93 56.31 58.25
  L 56.63 59.34
  Q 56.80 59.94 57.42 59.92
  Q 58.26 59.90 59.01 60.05
  Q 59.74 60.21 59.04 60.49
  Q 57.00 61.29 57.84 63.17
  Q 58.16 63.91 57.41 63.62
  Q 56.84 63.40 56.37 62.92
  A 0.45 0.45 0.0 0 0 55.78 62.88
  Q 55.08 63.40 54.37 63.61
  Q 53.55 63.86 54.00 63.13
  Q 55.07 61.40 53.10 60.63
  Q 52.07 60.23 53.16 60.05
  Q 53.92 59.93 54.66 59.89
  A 0.70 0.69 5.8 0 0 55.29 59.38
  Z"
/>
<path fill="#ffffff" d="
  M 73.01 59.92
  L 74.65 59.89
  A 0.35 0.35 0.0 0 1 74.85 60.53
  L 73.50 61.46
  A 0.35 0.35 0.0 0 0 73.37 61.86
  L 73.90 63.41
  A 0.35 0.35 0.0 0 1 73.36 63.81
  L 72.06 62.81
  A 0.35 0.35 0.0 0 0 71.63 62.81
  L 70.32 63.79
  A 0.35 0.35 0.0 0 1 69.78 63.40
  L 70.32 61.85
  A 0.35 0.35 0.0 0 0 70.20 61.45
  L 68.85 60.51
  A 0.35 0.35 0.0 0 1 69.06 59.87
  L 70.70 59.91
  A 0.35 0.35 0.0 0 0 71.04 59.66
  L 71.53 58.09
  A 0.35 0.35 0.0 0 1 72.20 58.10
  L 72.67 59.67
  A 0.35 0.35 0.0 0 0 73.01 59.92
  Z"
/>
<path fill="#ffffff" d="
  M 88.93 59.94
  L 90.59 59.90
  A 0.35 0.35 0.0 0 1 90.79 60.54
  L 89.42 61.47
  A 0.35 0.35 0.0 0 0 89.28 61.88
  L 89.83 63.44
  A 0.35 0.35 0.0 0 1 89.28 63.83
  L 87.97 62.82
  A 0.35 0.35 0.0 0 0 87.55 62.81
  L 86.23 63.82
  A 0.35 0.35 0.0 0 1 85.69 63.42
  L 86.25 61.86
  A 0.35 0.35 0.0 0 0 86.12 61.45
  L 84.76 60.51
  A 0.35 0.35 0.0 0 1 84.97 59.87
  L 86.63 59.92
  A 0.35 0.35 0.0 0 0 86.97 59.67
  L 87.45 58.09
  A 0.35 0.35 0.0 0 1 88.12 58.09
  L 88.58 59.68
  A 0.35 0.35 0.0 0 0 88.93 59.94
  Z"
/>
<path fill="#bb133e" d="
  M 96.19 58.18
  L 240.00 58.18
  L 240.00 67.81
  L 96.40 67.87
  Q 95.59 63.08 96.19 58.18
  Z"
/>
<path fill="#ffffff" d="
  M 240.00 67.81
  L 240.00 77.53
  L 0.00 77.52
  L 0.00 67.92
  L 96.40 67.87
  L 240.00 67.81
  Z"
/>
<path fill="#bb133e" d="
  M 0.00 77.52
  L 240.00 77.53
  L 240.00 87.22
  L 0.00 87.24
  L 0.00 77.52
  Z"
/>
<path fill="#ffffff" d="
  M 0.00 87.24
  L 240.00 87.22
  L 240.00 96.95
  L 0.00 96.95
  L 0.00 87.24
  Z"
/>
<path fill="#bb133e" d="
  M 0.00 96.95
  L 240.00 96.95
  L 240.00 106.60
  L 0.00 106.61
  L 0.00 96.95
  Z"
/>
<path fill="#ffffff" d="
  M 0.00 106.61
  L 240.00 106.60
  L 240.00 116.29
  L 0.00 116.29
  L 0.00 106.61
  Z"
/>
<path fill="#bb133e" d="
  M 240.00 116.29
  L 240.00 126.00
  L 0.00 126.00
  L 0.00 116.29
  L 240.00 116.29
  Z"
/>
</svg>
